<svg width="64" height="64" viewBox="0 0 64 64" fill="none" xmlns="http://www.w3.org/2000/svg">
<circle cx="32" cy="32" r="32" fill="#008DA6"/>
<path d="M28.3113 43.719H27.0529C26.9382 43.719 26.8282 43.6734 26.7471 43.5923C26.666 43.5112 26.6205 43.4012 26.6205 43.2865C26.6205 43.1719 26.666 43.0619 26.7471 42.9808C26.8282 42.8997 26.9382 42.8541 27.0529 42.8541H28.3113C28.426 42.8541 28.536 42.8997 28.6171 42.9808C28.6982 43.0619 28.7437 43.1719 28.7437 43.2865C28.7437 43.4012 28.6982 43.5112 28.6171 43.5923C28.536 43.6734 28.426 43.719 28.3113 43.719Z" fill="white"/>
<path d="M45.3232 43.7188H35.6497C35.535 43.7188 35.425 43.6733 35.3439 43.5922C35.2628 43.5111 35.2172 43.4011 35.2172 43.2864C35.2172 43.1717 35.2628 43.0617 35.3439 42.9806C35.425 42.8995 35.535 42.854 35.6497 42.854H45.3232C45.5743 42.8537 45.815 42.7539 45.9926 42.5763C46.1701 42.3988 46.27 42.158 46.2702 41.9069V24.908C46.2699 24.657 46.17 24.4163 45.9925 24.2388C45.8149 24.0612 45.5742 23.9613 45.3232 23.961H18.6767C18.4256 23.9613 18.185 24.0612 18.0074 24.2388C17.8299 24.4163 17.73 24.657 17.7297 24.908V41.9069C17.7299 42.158 17.8298 42.3988 18.0073 42.5763C18.1849 42.7539 18.4256 42.8537 18.6767 42.854H24.0259C24.1406 42.854 24.2506 42.8995 24.3317 42.9806C24.4128 43.0617 24.4583 43.1717 24.4583 43.2864C24.4583 43.4011 24.4128 43.5111 24.3317 43.5922C24.2506 43.6733 24.1406 43.7188 24.0259 43.7188H18.6767C18.1965 43.7177 17.7363 43.5264 17.3968 43.1869C17.0572 42.8473 16.8659 42.3871 16.8648 41.9069V24.908C16.8659 24.4278 17.0572 23.9676 17.3968 23.6281C17.7363 23.2885 18.1965 23.0973 18.6767 23.0961H45.3232C45.8034 23.0973 46.2636 23.2885 46.6031 23.6281C46.9427 23.9676 47.1339 24.4278 47.1351 24.908V41.9069C47.1339 42.3871 46.9427 42.8473 46.6031 43.1869C46.2636 43.5264 45.8034 43.7177 45.3232 43.7188Z" fill="white"/>
<path d="M32.6227 43.719H31.3384C31.2237 43.719 31.1137 43.6734 31.0326 43.5923C30.9515 43.5112 30.906 43.4012 30.906 43.2865C30.906 43.1719 30.9515 43.0619 31.0326 42.9808C31.1137 42.8997 31.2237 42.8541 31.3384 42.8541H32.6227C32.7374 42.8541 32.8474 42.8997 32.9285 42.9808C33.0096 43.0619 33.0551 43.1719 33.0551 43.2865C33.0551 43.4012 33.0096 43.5112 32.9285 43.5923C32.8474 43.6734 32.7374 43.719 32.6227 43.719Z" fill="white"/>
<path d="M35.905 23.9611H28.0948C27.9801 23.9611 27.8702 23.9155 27.7891 23.8344C27.708 23.7533 27.6624 23.6433 27.6624 23.5286L27.6672 21.5952C27.6674 21.2469 27.8058 20.9129 28.052 20.6665C28.2982 20.4202 28.6321 20.2815 28.9805 20.2811H35.0297C35.3778 20.2815 35.7115 20.42 35.9576 20.6661C36.2037 20.9122 36.3421 21.2459 36.3426 21.5939L36.3374 23.5286C36.3374 23.6433 36.2919 23.7533 36.2108 23.8344C36.1297 23.9155 36.0197 23.9611 35.905 23.9611ZM28.5286 23.0962H35.4738L35.4777 21.5944C35.4777 21.4755 35.4306 21.3615 35.3465 21.2774C35.2625 21.1933 35.1486 21.146 35.0297 21.1459H28.9805C28.8616 21.146 28.7477 21.1933 28.6636 21.2772C28.5796 21.3612 28.5322 21.4751 28.532 21.5939L28.5286 23.0962Z" fill="white"/>
<path d="M34.9307 32.6918C34.826 32.6918 34.7248 32.6537 34.646 32.5847C34.5671 32.5157 34.5161 32.4204 34.5022 32.3166C34.4884 32.2127 34.5127 32.1074 34.5707 32.0201C34.6286 31.9328 34.7163 31.8696 34.8174 31.8421L46.5887 28.627C46.6994 28.5967 46.8175 28.6116 46.9172 28.6685C47.0169 28.7253 47.0899 28.8194 47.1201 28.9301C47.1504 29.0408 47.1355 29.159 47.0786 29.2586C47.0218 29.3583 46.9277 29.4313 46.817 29.4616L35.0453 32.6754C35.008 32.686 34.9695 32.6915 34.9307 32.6918Z" fill="white"/>
<path d="M29.0691 32.6919C29.0304 32.6919 28.9919 32.6866 28.9545 32.6764L17.1833 29.4595C17.1285 29.4445 17.0772 29.4189 17.0323 29.384C16.9874 29.3492 16.9498 29.3059 16.9217 29.2566C16.8935 29.2072 16.8754 29.1528 16.8682 29.0964C16.8611 29.0401 16.8652 28.9828 16.8802 28.928C16.8951 28.8732 16.9208 28.8219 16.9556 28.777C16.9904 28.7321 17.0338 28.6946 17.0831 28.6664C17.1325 28.6383 17.1869 28.6201 17.2432 28.613C17.2996 28.6059 17.3568 28.6099 17.4116 28.6249L29.1824 31.8413C29.2835 31.8688 29.3712 31.9321 29.4292 32.0193C29.4872 32.1066 29.5115 32.2119 29.4977 32.3158C29.4838 32.4196 29.4327 32.5149 29.3539 32.584C29.2751 32.653 29.1739 32.691 29.0691 32.6911V32.6919Z" fill="white"/>
<path d="M34.6512 34.2988H29.3478C29.1596 34.2985 28.9792 34.2236 28.8461 34.0905C28.7131 33.9574 28.6383 33.7769 28.6382 33.5887V31.1576C28.6383 30.9694 28.7131 30.7889 28.8461 30.6558C28.9792 30.5227 29.1596 30.4478 29.3478 30.4475H34.6512C34.8394 30.4478 35.0199 30.5226 35.153 30.6557C35.2861 30.7889 35.361 30.9693 35.3612 31.1576V33.5887C35.361 33.777 35.2861 33.9574 35.153 34.0905C35.0199 34.2237 34.8394 34.2985 34.6512 34.2988ZM29.5052 33.4339H34.4964V31.3124H29.5031L29.5052 33.4339Z" fill="white"/>
</svg>
