<svg width="64" height="64" viewBox="0 0 64 64" fill="none" xmlns="http://www.w3.org/2000/svg">
<circle cx="32" cy="32" r="32" fill="#5243AA"/>
<path d="M29.8994 42.8303H28.4301C28.2962 42.8303 28.1677 42.7771 28.0731 42.6824C27.9784 42.5877 27.9252 42.4593 27.9252 42.3253C27.9252 42.1914 27.9784 42.063 28.0731 41.9683C28.1677 41.8736 28.2962 41.8204 28.4301 41.8204H29.8994C30.0333 41.8204 30.1617 41.8736 30.2564 41.9683C30.3511 42.063 30.4043 42.1914 30.4043 42.3253C30.4043 42.4593 30.3511 42.5877 30.2564 42.6824C30.1617 42.7771 30.0333 42.8303 29.8994 42.8303Z" fill="#FAFBFC"/>
<path d="M39.4472 42.8301H38.4677C38.3338 42.8301 38.2054 42.7769 38.1107 42.6822C38.016 42.5875 37.9628 42.4591 37.9628 42.3252C37.9628 42.1913 38.016 42.0628 38.1107 41.9682C38.2054 41.8735 38.3338 41.8203 38.4677 41.8203H38.9423V38.2657C38.9467 37.6086 38.775 36.9622 38.445 36.394C38.1223 35.8355 37.6622 35.3688 37.1084 35.0382C36.5546 34.7076 35.9254 34.5241 35.2807 34.5051C34.1775 35.1071 32.9409 35.4225 31.6842 35.4225C30.4275 35.4225 29.1909 35.1071 28.0877 34.5051C27.4427 34.5241 26.8132 34.7073 26.2587 35.0374C25.7042 35.3674 25.243 35.8335 24.9189 36.3915C24.5886 36.9602 24.4167 37.607 24.421 38.2647V41.8193H24.8956C25.0296 41.8193 25.158 41.8725 25.2527 41.9671C25.3474 42.0618 25.4006 42.1903 25.4006 42.3242C25.4006 42.4581 25.3474 42.5865 25.2527 42.6812C25.158 42.7759 25.0296 42.8291 24.8956 42.8291H23.9161C23.7822 42.8291 23.6538 42.7759 23.5591 42.6812C23.4644 42.5865 23.4112 42.4581 23.4112 42.3242V38.2657C23.4092 37.4307 23.6278 36.6099 24.0449 35.8865C24.4651 35.1602 25.0687 34.5569 25.7953 34.1371C26.5219 33.7173 27.346 33.4956 28.1852 33.4943C28.2906 33.4943 28.3945 33.5198 28.4881 33.5685C29.4629 34.1225 30.565 34.4137 31.6862 34.4137C32.8075 34.4137 33.9095 34.1225 34.8843 33.5685C34.9635 33.5205 35.0543 33.4951 35.1469 33.4953C35.9915 33.4923 36.822 33.712 37.5547 34.1322C38.2874 34.5523 38.8964 35.1581 39.3205 35.8886C39.7373 36.6117 39.9557 37.4321 39.9536 38.2667V42.3262C39.9535 42.3925 39.9403 42.4582 39.9148 42.5195C39.8893 42.5807 39.8519 42.6363 39.8049 42.6831C39.7578 42.7299 39.702 42.767 39.6407 42.7922C39.5793 42.8174 39.5136 42.8303 39.4472 42.8301Z" fill="#FAFBFC"/>
<path d="M34.9334 42.8303H33.4338C33.2999 42.8303 33.1715 42.7771 33.0768 42.6824C32.9821 42.5877 32.9289 42.4593 32.9289 42.3253C32.9289 42.1914 32.9821 42.063 33.0768 41.9683C33.1715 41.8736 33.2999 41.8204 33.4338 41.8204H34.9334C35.0673 41.8204 35.1957 41.8736 35.2904 41.9683C35.3851 42.063 35.4383 42.1914 35.4383 42.3253C35.4383 42.4593 35.3851 42.5877 35.2904 42.6824C35.1957 42.7771 35.0673 42.8303 34.9334 42.8303Z" fill="#FAFBFC"/>
<path d="M48.8488 42.8303H38.4678C38.3339 42.8303 38.2055 42.7771 38.1108 42.6824C38.0161 42.5877 37.9629 42.4593 37.9629 42.3254C37.9629 42.1914 38.0161 42.063 38.1108 41.9683C38.2055 41.8736 38.3339 41.8204 38.4678 41.8204H48.3439V39.1899C48.3435 38.467 48.0636 37.7724 47.5626 37.2514C47.0616 36.7303 46.3785 36.4233 45.6562 36.3947C44.7972 36.8729 43.8285 37.1193 42.8454 37.1096C41.8639 37.1212 40.8965 36.8749 40.0401 36.3952C39.7086 36.4074 39.382 36.4788 39.0757 36.6062C39.0143 36.6329 38.9482 36.6471 38.8813 36.648C38.8143 36.6489 38.7479 36.6365 38.6858 36.6114C38.6237 36.5864 38.5672 36.5493 38.5196 36.5022C38.4719 36.4552 38.4342 36.3991 38.4084 36.3373C38.3827 36.2755 38.3695 36.2092 38.3696 36.1422C38.3697 36.0753 38.3831 36.009 38.4091 35.9473C38.4351 35.8856 38.4731 35.8297 38.5208 35.7828C38.5686 35.7359 38.6253 35.699 38.6874 35.6742C39.1472 35.4818 39.6407 35.3828 40.1391 35.3828C40.2447 35.3825 40.3488 35.4083 40.442 35.458C41.1796 35.8656 42.0085 36.0793 42.8512 36.0793C43.6939 36.0793 44.5228 35.8656 45.2604 35.458C45.3396 35.4096 45.4306 35.3839 45.5235 35.3838C46.025 35.3818 46.522 35.4787 46.986 35.669C47.45 35.8593 47.872 36.1392 48.2277 36.4927C48.5835 36.8462 48.866 37.2663 49.0593 37.7292C49.2525 38.192 49.3525 38.6883 49.3537 39.1899V42.3254C49.3537 42.4593 49.3005 42.5877 49.2058 42.6824C49.1111 42.7771 48.9827 42.8303 48.8488 42.8303Z" fill="#FAFBFC"/>
<path d="M24.8957 42.8303H14.5147C14.3808 42.8303 14.2524 42.7771 14.1577 42.6824C14.063 42.5877 14.0098 42.4593 14.0098 42.3254V39.1899C14.0102 38.1812 14.4108 37.2138 15.1235 36.5001C15.8363 35.7864 16.8031 35.3846 17.8118 35.3828C17.9176 35.3824 18.0218 35.4086 18.1148 35.4591C18.8522 35.8663 19.6808 36.0799 20.5232 36.0799C21.3656 36.0799 22.1942 35.8663 22.9316 35.4591C23.011 35.4105 23.1022 35.3848 23.1952 35.3848C23.7037 35.3818 24.2076 35.4809 24.6771 35.6762C24.7393 35.701 24.7959 35.7379 24.8437 35.7848C24.8915 35.8317 24.9295 35.8876 24.9554 35.9493C24.9814 36.011 24.9948 36.0773 24.995 36.1443C24.9951 36.2112 24.9819 36.2775 24.9561 36.3393C24.9304 36.4011 24.8926 36.4572 24.845 36.5043C24.7974 36.5513 24.7409 36.5884 24.6788 36.6135C24.6167 36.6385 24.5502 36.6509 24.4833 36.65C24.4163 36.6491 24.3502 36.6349 24.2888 36.6082C23.9843 36.4808 23.6594 36.4091 23.3295 36.3967C22.4635 36.8516 21.4999 37.0893 20.5217 37.0893C19.5435 37.0893 18.5799 36.8516 17.7139 36.3967C16.9912 36.4249 16.3075 36.7313 15.8054 37.2518C15.3034 37.7723 15.0218 38.4667 15.0197 39.1899V41.8205H24.8957C25.0297 41.8205 25.1581 41.8737 25.2528 41.9683C25.3475 42.063 25.4007 42.1915 25.4007 42.3254C25.4007 42.4593 25.3475 42.5877 25.2528 42.6824C25.1581 42.7771 25.0297 42.8303 24.8957 42.8303Z" fill="#FAFBFC"/>
<path d="M31.7594 32.5598C30.9549 32.56 30.1627 32.3616 29.4533 31.9821C28.7438 31.6026 28.1391 31.0538 27.6928 30.3844C27.2465 29.715 26.9724 28.9457 26.8949 28.1449C26.8174 27.3441 26.9389 26.5365 27.2485 25.7939C27.2729 25.7313 27.3096 25.6742 27.3564 25.6259C27.4032 25.5777 27.4591 25.5392 27.5209 25.5129C27.5828 25.4865 27.6493 25.4727 27.7165 25.4724C27.7837 25.4721 27.8503 25.4852 27.9124 25.5109C27.9745 25.5367 28.0308 25.5746 28.078 25.6224C28.1253 25.6702 28.1625 25.7269 28.1876 25.7893C28.2126 25.8517 28.2249 25.9184 28.2238 25.9857C28.2227 26.0529 28.2082 26.1192 28.1811 26.1807C27.9601 26.7101 27.8592 27.2819 27.8859 27.8549C27.9125 28.4279 28.066 28.9879 28.3351 29.4945C28.6043 30.0011 28.9826 30.4416 29.4426 30.7843C29.9026 31.1271 30.4329 31.3635 30.9953 31.4765C31.5577 31.5896 32.1382 31.5764 32.6949 31.438C33.2516 31.2996 33.7707 31.0394 34.2147 30.6762C34.6587 30.313 35.0166 29.8558 35.2626 29.3375C35.5086 28.8193 35.6365 28.2529 35.6371 27.6793C35.6371 27.552 35.6371 27.4268 35.6422 27.3051C35.6462 27.1173 35.6498 26.931 35.6422 26.7371C35.6399 26.6708 35.6508 26.6047 35.6741 26.5426C35.6973 26.4805 35.7326 26.4235 35.7779 26.3751C35.8232 26.3266 35.8776 26.2875 35.938 26.26C35.9984 26.2326 36.0636 26.2173 36.1299 26.215C36.1962 26.2128 36.2623 26.2236 36.3245 26.2469C36.3866 26.2702 36.4435 26.3055 36.492 26.3508C36.5405 26.3961 36.5796 26.4505 36.607 26.5109C36.6345 26.5713 36.6498 26.6365 36.652 26.7028C36.6591 26.9153 36.6555 27.1193 36.652 27.3253C36.6495 27.442 36.647 27.5591 36.647 27.6788C36.6444 28.9736 36.1285 30.2147 35.2122 31.1297C34.296 32.0447 33.0543 32.559 31.7594 32.5598Z" fill="#FAFBFC"/>
<path d="M36.1482 27.2223C36.0474 27.2225 35.9488 27.1924 35.8652 27.1359C35.7816 27.0795 35.7168 26.9993 35.6792 26.9058C35.4989 26.4559 34.9092 25.3062 34.1882 24.8806C33.3803 25.4738 30.7997 27.1643 28.2903 26.6755C26.873 26.3988 25.7314 25.4844 24.8978 23.9581C24.8494 23.8695 24.8286 23.7685 24.8382 23.6681C24.8478 23.5677 24.8872 23.4724 24.9515 23.3946C25.0157 23.3168 25.1017 23.26 25.1986 23.2315C25.2954 23.2031 25.3985 23.2043 25.4946 23.235C25.9806 23.3344 26.4847 23.2974 26.951 23.1281C27.4173 22.9588 27.8277 22.6638 28.1368 22.2757C28.2378 22.1747 30.1473 20.357 32.2447 20.5484C32.7183 20.5971 33.1765 20.7437 33.5903 20.9789C34.0041 21.2141 34.3645 21.5328 34.6486 21.9147C35.037 21.8873 35.4265 21.9491 35.7874 22.0952C36.1483 22.2413 36.471 22.468 36.7309 22.7579C37.4125 23.6208 37.3742 25.0159 36.6168 26.9058C36.5792 26.9993 36.5145 27.0794 36.431 27.1358C36.3475 27.1922 36.249 27.2224 36.1482 27.2223ZM26.3186 24.2938C26.8445 25.0087 27.6155 25.5045 28.4842 25.6864C30.9875 26.1782 33.7751 23.9293 33.8029 23.9066C33.8696 23.852 33.9492 23.8154 34.034 23.8003C34.1189 23.7852 34.2062 23.7921 34.2876 23.8202C35.0349 24.1527 35.6533 24.72 36.0488 25.436C36.2941 24.4953 36.2593 23.7985 35.9412 23.3921C35.4828 22.8069 34.4951 22.9376 34.485 22.9376C34.3936 22.9509 34.3003 22.9387 34.2153 22.9026C34.1303 22.8664 34.0568 22.8077 34.0029 22.7327C33.8028 22.4101 33.5327 22.1368 33.2127 21.9329C32.8926 21.7289 32.5307 21.5997 32.1539 21.5547C30.5174 21.4068 28.8719 22.9684 28.8568 22.9831C28.2088 23.7273 27.3007 24.1955 26.3186 24.2918V24.2938Z" fill="#FAFBFC"/>
<path d="M42.906 34.5327C42.265 34.5336 41.6337 34.376 41.0684 34.0739C40.503 33.7718 40.0212 33.3347 39.6656 32.8013C39.3101 32.268 39.0919 31.655 39.0306 31.017C38.9693 30.3789 39.0666 29.7356 39.314 29.1443C39.3381 29.0812 39.3745 29.0235 39.4212 28.9747C39.4679 28.9259 39.5239 28.887 39.5859 28.8603C39.648 28.8335 39.7147 28.8195 39.7822 28.819C39.8498 28.8185 39.9167 28.8316 39.9791 28.8574C40.0415 28.8832 40.0981 28.9213 40.1455 28.9694C40.1929 29.0175 40.2302 29.0747 40.2551 29.1374C40.2801 29.2002 40.2922 29.2673 40.2907 29.3349C40.2892 29.4024 40.2742 29.4689 40.2466 29.5305C40.0823 29.924 40.0073 30.3489 40.027 30.7748C40.0468 31.2007 40.1608 31.617 40.3608 31.9935C40.5608 32.37 40.8419 32.6975 41.1838 32.9522C41.5257 33.207 41.9198 33.3828 42.3378 33.4668C42.7558 33.5509 43.1872 33.5411 43.601 33.4383C44.0148 33.3355 44.4006 33.1422 44.7306 32.8722C45.0606 32.6023 45.3267 32.2625 45.5095 31.8773C45.6924 31.4922 45.7875 31.0712 45.788 30.6449C45.788 30.5439 45.788 30.4495 45.7921 30.3535C45.7951 30.2102 45.7981 30.0688 45.7921 29.9208C45.7898 29.8546 45.8005 29.7885 45.8238 29.7264C45.847 29.6643 45.8823 29.6074 45.9275 29.5589C45.9728 29.5104 46.0271 29.4713 46.0875 29.4438C46.1478 29.4164 46.213 29.401 46.2793 29.3988C46.3459 29.395 46.4126 29.4048 46.4753 29.4275C46.5381 29.4502 46.5956 29.4854 46.6444 29.5309C46.6931 29.5764 46.7322 29.6314 46.7592 29.6924C46.7862 29.7534 46.8005 29.8193 46.8014 29.886C46.8069 30.0526 46.8014 30.2122 46.8014 30.3737C46.8014 30.4626 46.7973 30.553 46.7973 30.6449C46.7956 31.6761 46.3849 32.6645 45.6554 33.3933C44.926 34.1222 43.9372 34.5319 42.906 34.5327Z" fill="#FAFBFC"/>
<path d="M46.2974 30.408C46.1966 30.408 46.0981 30.3779 46.0146 30.3214C45.9311 30.265 45.8664 30.1849 45.8288 30.0914C45.6047 29.5251 45.2474 29.0211 44.7872 28.6221C44.0879 29.124 42.1258 30.3585 40.2026 29.9854C39.6177 29.8555 39.0703 29.5935 38.6023 29.2194C38.1342 28.8454 37.758 28.3692 37.5023 27.8274C37.4539 27.7388 37.4332 27.6378 37.4428 27.5374C37.4523 27.4369 37.4918 27.3417 37.556 27.2639C37.6202 27.1861 37.7063 27.1293 37.8031 27.1008C37.8999 27.0724 38.003 27.0736 38.0991 27.1043C38.4541 27.1737 38.8213 27.1439 39.1604 27.0183C39.4996 26.8928 39.7976 26.6762 40.0218 26.3924C40.1062 26.3106 41.6204 24.8671 43.2916 25.0216C43.6637 25.0589 44.0242 25.1717 44.3512 25.3532C44.6781 25.5346 44.9646 25.7809 45.1931 26.0768C45.5018 26.0627 45.8096 26.118 46.094 26.2386C46.3785 26.3592 46.6322 26.542 46.8366 26.7736C47.392 27.4749 47.3668 28.5913 46.7649 30.0929C46.7274 30.1863 46.6628 30.2664 46.5793 30.3228C46.4959 30.3792 46.3976 30.4094 46.2969 30.4095L46.2974 30.408ZM38.9206 28.1167C39.2983 28.5683 39.8191 28.8772 40.3965 28.9922C42.2818 29.3598 44.3919 27.6577 44.4126 27.6406C44.4793 27.586 44.5588 27.5494 44.6437 27.5343C44.7285 27.5192 44.8158 27.526 44.8973 27.5542C45.4198 27.7734 45.863 28.1468 46.1676 28.6246C46.2327 28.4234 46.2557 28.2109 46.2351 28.0005C46.2145 27.79 46.1508 27.586 46.048 27.4012C45.7405 27.0079 45.0351 27.0932 45.028 27.0937C44.9367 27.1061 44.8438 27.0935 44.759 27.0575C44.6742 27.0214 44.6008 26.9631 44.5464 26.8887C44.401 26.6532 44.2046 26.4532 43.9716 26.3038C43.7386 26.1543 43.475 26.0592 43.2003 26.0253C42.1904 25.935 41.0847 26.7686 40.7423 27.0978C40.2695 27.6358 39.6265 27.9955 38.9206 28.1167Z" fill="#FAFBFC"/>
<path d="M20.5777 34.533C19.9367 34.5339 19.3055 34.3763 18.7401 34.0742C18.1748 33.7721 17.6929 33.335 17.3374 32.8016C16.9818 32.2683 16.7637 31.6553 16.7024 31.0172C16.641 30.3792 16.7384 29.7359 16.9858 29.1446C17.0396 29.0247 17.1379 28.9305 17.26 28.882C17.3821 28.8335 17.5183 28.8345 17.6397 28.8847C17.761 28.935 17.8581 29.0306 17.9101 29.1512C17.9621 29.2719 17.9651 29.408 17.9184 29.5308C17.754 29.9242 17.679 30.3492 17.6988 30.7751C17.7185 31.201 17.8325 31.6172 18.0326 31.9938C18.2326 32.3703 18.5137 32.6977 18.8555 32.9525C19.1974 33.2073 19.5916 33.383 20.0095 33.4671C20.4275 33.5512 20.859 33.5414 21.2728 33.4386C21.6865 33.3358 22.0723 33.1424 22.4024 32.8725C22.7324 32.6026 22.9984 32.2628 23.1813 31.8776C23.3641 31.4925 23.4592 31.0715 23.4598 30.6452C23.4598 30.5442 23.4598 30.4498 23.4638 30.3538C23.4638 30.2104 23.4699 30.0691 23.4638 29.9211C23.4615 29.8548 23.4723 29.7888 23.4955 29.7267C23.5188 29.6646 23.554 29.6076 23.5993 29.5592C23.6445 29.5107 23.6989 29.4716 23.7592 29.4441C23.8196 29.4166 23.8848 29.4013 23.951 29.399C24.0176 29.3958 24.084 29.4059 24.1466 29.4288C24.2091 29.4517 24.2664 29.4869 24.3151 29.5323C24.3637 29.5778 24.4028 29.6325 24.43 29.6933C24.4571 29.7541 24.4718 29.8197 24.4731 29.8863C24.4787 30.0529 24.4731 30.2125 24.4731 30.374C24.4731 30.4629 24.4691 30.5533 24.4691 30.6452C24.4674 31.6764 24.0567 32.6648 23.3272 33.3936C22.5977 34.1224 21.6089 34.5322 20.5777 34.533Z" fill="#FAFBFC"/>
<path d="M23.9692 30.4083C23.8684 30.4083 23.7699 30.3782 23.6864 30.3217C23.6029 30.2653 23.5382 30.1852 23.5006 30.0917C23.2766 29.5253 22.9193 29.0213 22.459 28.6224C21.7597 29.1243 19.7946 30.3578 17.8749 29.9857C17.2899 29.856 16.7423 29.594 16.2742 29.22C15.806 28.8459 15.4297 28.3697 15.1741 27.8277C15.1258 27.7391 15.105 27.6381 15.1146 27.5377C15.1242 27.4373 15.1636 27.342 15.2278 27.2642C15.292 27.1864 15.3781 27.1296 15.4749 27.1011C15.5717 27.0727 15.6748 27.0739 15.7709 27.1046C16.1264 27.1742 16.4941 27.1443 16.8337 27.0183C17.1733 26.8924 17.4715 26.6752 17.6957 26.3907C17.7795 26.3089 19.2957 24.8654 20.965 25.0199C21.3369 25.0576 21.6973 25.1709 22.0239 25.3527C22.3506 25.5344 22.6368 25.781 22.865 26.0771C23.1736 26.063 23.4814 26.1183 23.7658 26.2389C24.0503 26.3595 24.304 26.5423 24.5084 26.7739C25.0638 27.4753 25.0386 28.5916 24.4367 30.0932C24.3992 30.1866 24.3346 30.2667 24.2512 30.3231C24.1677 30.3795 24.0694 30.4097 23.9687 30.4098L23.9692 30.4083ZM16.5924 28.117C16.9702 28.5685 17.4909 28.8774 18.0683 28.9925C19.9536 29.3591 22.0632 27.6575 22.0844 27.6424C22.1511 27.5878 22.2306 27.5512 22.3155 27.5361C22.4003 27.521 22.4876 27.5279 22.5691 27.556C23.0915 27.7752 23.5346 28.1484 23.8394 28.6259C23.9044 28.4248 23.9273 28.2124 23.9067 28.0021C23.8861 27.7917 23.8225 27.5878 23.7198 27.403C23.4128 27.0097 22.7069 27.0951 22.6993 27.0956C22.6081 27.1077 22.5153 27.0951 22.4306 27.0591C22.346 27.023 22.2726 26.9648 22.2182 26.8906C22.0728 26.655 21.8764 26.4551 21.6434 26.3056C21.4104 26.1562 21.1468 26.061 20.8721 26.0272C19.8673 25.9368 18.756 26.7704 18.4142 27.0996C17.9411 27.6371 17.2981 27.9962 16.5924 28.117Z" fill="#FAFBFC"/>
</svg>
