<svg width="64" height="64" viewBox="0 0 64 64" fill="none" xmlns="http://www.w3.org/2000/svg">
<circle cx="32" cy="32" r="32" fill="#FF8B00"/>
<g clip-path="url(#clip0_1_522)">
<path d="M47.7469 17.6147C47.6153 17.5463 47.4637 17.5471 47.3348 17.6062C47.3348 17.6057 47.2957 17.6247 47.2933 17.6262L20.612 33.2386C20.4292 33.3458 20.3408 33.5621 20.3962 33.7667C20.4516 33.9713 20.6374 34.1134 20.8493 34.1134H28.6606L33.016 37.7333C33.0194 37.7362 33.0236 37.7381 33.0273 37.7411C33.0429 37.7533 33.059 37.7647 33.0763 37.775C33.0849 37.7801 33.0937 37.7845 33.1025 37.7889C33.1105 37.7931 33.1176 37.7977 33.1256 37.8014C33.1337 37.8048 33.1418 37.8075 33.1498 37.8106C33.1549 37.8124 33.1598 37.8146 33.165 37.8163C33.1864 37.8236 33.2084 37.8292 33.2306 37.8334C33.2355 37.8343 33.2406 37.8351 33.2455 37.8358C33.269 37.8392 33.2921 37.8417 33.3156 37.8417H33.3158C33.3317 37.8417 33.3473 37.8407 33.3629 37.8392C33.3678 37.8387 33.3727 37.8377 33.3776 37.837C33.3883 37.8358 33.3988 37.8341 33.4093 37.8319C33.4152 37.8307 33.4211 37.8292 33.4269 37.828C33.4362 37.8255 33.4457 37.8231 33.455 37.8202C33.4611 37.8182 33.4672 37.8163 33.4733 37.8141C33.4823 37.8109 33.4909 37.8075 33.4997 37.8038C33.5058 37.8011 33.5116 37.7987 33.5177 37.796C33.5268 37.7916 33.5358 37.7865 33.5448 37.7816C33.5497 37.7789 33.5548 37.7765 33.5597 37.7735C33.5729 37.7655 33.5858 37.7567 33.5983 37.7474C33.6024 37.7442 33.6064 37.7406 33.6105 37.7372C33.6173 37.7315 33.6244 37.7262 33.6313 37.7203L37.6161 34.1132H44.0353C44.255 34.1132 44.4454 33.9608 44.4933 33.7465L47.9886 18.1337C48.035 17.926 47.9359 17.7131 47.7469 17.6147ZM28.6601 33.1744H22.581L42.9037 21.2824L28.6601 33.1744ZM33.7853 36.3141V34.1134H36.2169L33.7853 36.3141ZM43.659 33.1744H34.3781L36.7589 30.5595C36.9335 30.3678 36.9196 30.0709 36.7279 29.8964C36.5363 29.7218 36.2394 29.7355 36.0648 29.9274L32.9689 33.3278C32.9672 33.3295 32.966 33.3317 32.9643 33.3334C32.9372 33.3641 32.9142 33.3983 32.8959 33.4352C32.894 33.4391 32.892 33.4427 32.8903 33.4467C32.8734 33.483 32.8612 33.5218 32.8539 33.5624C32.8532 33.567 32.8525 33.5719 32.8517 33.5768C32.8495 33.5929 32.8481 33.6093 32.8473 33.6259C32.8471 33.63 32.8468 33.6344 32.8468 33.6385C32.8468 33.6405 32.8466 33.6422 32.8466 33.6439V36.3717L29.5637 33.6429L42.5629 22.7902L37.329 28.539C37.1544 28.7306 37.1684 29.0275 37.36 29.202C37.5516 29.3766 37.8488 29.3627 38.0231 29.171L46.6854 19.6567L43.659 33.1744Z" fill="#FAFBFC"/>
<path d="M19.491 25.7574H21.4524C21.7114 25.7574 21.9216 25.5472 21.9216 25.288C21.9216 25.0287 21.7114 24.8185 21.4524 24.8185H19.491C19.1057 24.8185 18.7922 24.505 18.7922 24.1195C18.7922 23.7343 19.1057 23.4205 19.491 23.4205H20.1775C20.3401 23.4205 20.491 23.3365 20.5767 23.1984C20.6621 23.0602 20.6702 22.8878 20.5979 22.7423C20.4851 22.5153 20.4277 22.2711 20.4277 22.0165C20.4277 21.1156 21.1606 20.3827 22.0615 20.3827C22.9624 20.3827 23.6951 21.1156 23.6951 22.0165C23.6951 22.2711 23.6379 22.5153 23.5251 22.7423C23.4526 22.8878 23.4607 23.0602 23.5464 23.1984C23.6321 23.3365 23.783 23.4205 23.9453 23.4205H24.7097C24.969 23.4205 25.1792 23.2106 25.1792 22.9513C25.1792 22.351 25.6675 21.8627 26.2676 21.8627C26.8643 21.8627 27.3503 22.3453 27.356 22.9408C27.3557 22.9474 27.3555 22.9537 27.3555 22.9589C27.3535 23.1957 27.5283 23.3969 27.7629 23.4281C28.1084 23.474 28.3687 23.7714 28.3687 24.1195C28.3687 24.505 28.0552 24.8185 27.6697 24.8185H23.3301C23.0708 24.8185 22.8606 25.0287 22.8606 25.288C22.8606 25.5472 23.0708 25.7574 23.3301 25.7574H27.6697C28.5728 25.7574 29.3076 25.0228 29.3076 24.1195C29.3076 23.4352 28.8789 22.8346 28.2634 22.5944C28.0945 21.6461 27.2639 20.924 26.2678 20.924C25.5911 20.924 24.9907 21.2572 24.6221 21.7682C24.4968 20.4657 23.3962 19.444 22.0615 19.444C20.6428 19.444 19.489 20.598 19.489 22.0165C19.489 22.1742 19.5029 22.3297 19.5308 22.4818H19.491C18.5879 22.4818 17.853 23.2164 17.853 24.1195C17.853 25.0228 18.5879 25.7574 19.491 25.7574Z" fill="#FAFBFC"/>
<path d="M45.3275 43.8544C45.1664 43.1237 44.5136 42.5753 43.735 42.5753C43.2868 42.5753 42.88 42.7572 42.5851 43.0511C42.3766 42.1476 41.5658 41.4723 40.6 41.4723C39.477 41.4723 38.5631 42.3861 38.5631 43.5092C38.5631 43.5873 38.5675 43.6644 38.5761 43.7408C37.8874 43.796 37.3439 44.3741 37.3439 45.0768C37.3439 45.8158 37.9452 46.4171 38.6842 46.4171H44.7802C45.5192 46.4171 46.1205 45.8158 46.1205 45.0768C46.1205 44.5397 45.798 44.0658 45.3275 43.8544ZM44.7802 45.4781H38.6842C38.4628 45.4781 38.2829 45.298 38.2829 45.0768C38.2829 44.8553 38.4628 44.6754 38.6842 44.6754H39.196C39.3583 44.6754 39.5094 44.5912 39.5949 44.4532C39.6806 44.3151 39.6886 44.1425 39.6161 43.9969C39.5404 43.8444 39.5019 43.6803 39.5019 43.5092C39.5019 42.9037 39.9945 42.4113 40.6 42.4113C41.2055 42.4113 41.6982 42.9037 41.6982 43.5092C41.6982 43.6803 41.6596 43.8444 41.5839 43.9969C41.5114 44.1425 41.5194 44.3151 41.6051 44.4532C41.6908 44.5912 41.8417 44.6754 42.0041 44.6754H42.5739C42.8332 44.6754 43.0434 44.4652 43.0434 44.2059C43.0434 43.8246 43.3537 43.5143 43.735 43.5143C44.1132 43.5143 44.4215 43.8195 44.4267 44.1967C44.4264 44.203 44.4262 44.2091 44.4262 44.2145C44.4262 44.4498 44.6005 44.6488 44.8336 44.6798C45.0319 44.7062 45.1815 44.8768 45.1815 45.0768C45.1815 45.298 45.0014 45.4781 44.7802 45.4781Z" fill="#FAFBFC"/>
<path d="M23.9836 39.4727C23.8225 38.742 23.1697 38.1939 22.3914 38.1939C21.9429 38.1939 21.5361 38.3755 21.2412 38.6695C21.0327 37.7661 20.2219 37.0906 19.2561 37.0906C18.1331 37.0906 17.2192 38.0047 17.2192 39.1277C17.2192 39.2056 17.2236 39.283 17.2322 39.3592C16.5435 39.4146 16 39.9927 16 40.6951C16 41.4344 16.6013 42.0354 17.3403 42.0354H23.4363C24.1753 42.0354 24.7766 41.4344 24.7766 40.6951C24.7766 40.1582 24.4541 39.6841 23.9836 39.4727ZM23.4363 41.0967H17.3403C17.1189 41.0967 16.939 40.9165 16.939 40.6951C16.939 40.4739 17.1189 40.2937 17.3403 40.2937H17.8521C18.0144 40.2937 18.1655 40.2097 18.251 40.0716C18.3367 39.9334 18.3447 39.761 18.2722 39.6153C18.1965 39.4629 18.158 39.2989 18.158 39.1277C18.158 38.5222 18.6506 38.0296 19.2561 38.0296C19.8616 38.0296 20.3542 38.5222 20.3542 39.1277C20.3542 39.2989 20.3157 39.4629 20.24 39.6153C20.1675 39.761 20.1755 39.9334 20.2612 40.0716C20.3469 40.2097 20.4978 40.2937 20.6602 40.2937H21.23C21.4893 40.2937 21.6995 40.0838 21.6995 39.8242C21.6995 39.4429 22.0098 39.1326 22.3911 39.1326C22.7695 39.1326 23.0776 39.438 23.0828 39.815C23.0825 39.8213 23.0823 39.8277 23.0823 39.8328C23.0823 40.0681 23.2566 40.2671 23.4897 40.2984C23.688 40.3245 23.8376 40.4951 23.8376 40.6951C23.8376 40.9165 23.6577 41.0967 23.4363 41.0967Z" fill="#FAFBFC"/>
</g>
<defs>
<clipPath id="clip0_1_522">
<rect width="32" height="32" fill="white" transform="translate(16 16)"/>
</clipPath>
</defs>
</svg>
