<svg width="144" height="24" viewBox="0 0 144 24" fill="none" xmlns="http://www.w3.org/2000/svg">
<path d="M99.6436 15.7339C100.127 15.4873 100.571 15.0417 100.978 14.395L103.419 15.5928C102.91 16.595 102.16 17.3517 101.169 17.8617C100.178 18.3717 99.1064 18.6262 97.9544 18.6262C97.107 18.6262 96.3061 18.4862 95.5529 18.205C94.7985 17.925 94.1384 17.5162 93.5701 16.9817C93.0019 16.4473 92.5533 15.8006 92.2232 15.0439C91.8931 14.2873 91.728 13.425 91.728 12.4562C91.728 11.6062 91.8809 10.8073 92.1855 10.0595C92.4901 9.31171 92.9144 8.66171 93.456 8.10949C93.9988 7.55727 94.6546 7.12393 95.4255 6.80949C96.1965 6.49504 97.0394 6.33838 97.9544 6.33838C98.8859 6.33838 99.7289 6.49949 100.483 6.82282C101.238 7.14616 101.881 7.59172 102.415 8.16172C102.949 8.73172 103.355 9.41505 103.635 10.2139C103.914 11.0128 104.054 11.8962 104.054 12.865V13.3239H95.3114C95.379 14.1395 95.6803 14.8073 96.2142 15.325C96.7481 15.8439 97.3872 16.1028 98.1327 16.1028C98.6566 16.1039 99.1606 15.9806 99.6436 15.7339ZM96.1998 9.55171C95.7423 9.95949 95.4543 10.5206 95.3358 11.2339H100.444C100.309 10.4184 100.004 9.83172 99.5295 9.47505C99.0554 9.11838 98.5215 8.93949 97.9289 8.93949C97.2333 8.9406 96.6573 9.14393 96.1998 9.55171Z" fill="#0052CC"/>
<path d="M105.12 9.88378C105.408 9.11934 105.794 8.47267 106.277 7.946C106.76 7.41934 107.327 7.01933 107.979 6.74822C108.632 6.476 109.331 6.34045 110.076 6.34045C110.789 6.34045 111.449 6.48044 112.059 6.76156C112.669 7.04156 113.194 7.42045 113.634 7.896L113.685 7.87045V0.0693359H117.243V18.3482H113.913L113.811 17.0738L113.76 17.0482C113.371 17.4727 112.862 17.8427 112.235 18.1571C111.608 18.4716 110.914 18.6282 110.152 18.6282C109.423 18.6282 108.728 18.496 108.068 18.2327C107.407 17.9693 106.827 17.5738 106.327 17.0471C105.827 16.5204 105.428 15.8782 105.133 15.1227C104.836 14.366 104.687 13.4871 104.687 12.4838C104.688 11.5149 104.832 10.6482 105.12 9.88378ZM109.047 14.9316C109.547 15.5438 110.204 15.8493 111.017 15.8493C111.83 15.8493 112.478 15.5393 112.961 14.9193C113.444 14.2993 113.685 13.4793 113.685 12.4593C113.685 11.4393 113.435 10.6282 112.935 10.0249C112.436 9.42156 111.795 9.12045 111.017 9.12045C110.153 9.12045 109.484 9.43045 109.008 10.0504C108.534 10.6704 108.297 11.4738 108.297 12.4593C108.297 13.4949 108.548 14.3193 109.047 14.9316Z" fill="#0052CC"/>
<path d="M125.516 20.9862C125.88 20.8073 126.172 20.5617 126.393 20.2473C126.613 19.9328 126.769 19.5673 126.863 19.1506C126.956 18.7339 127.002 18.2884 127.002 17.8117V17.225C126.985 17.225 126.972 17.2206 126.964 17.2117C126.957 17.2028 126.943 17.1995 126.927 17.1995C126.555 17.5728 126.072 17.905 125.478 18.1939C124.885 18.4828 124.224 18.6273 123.495 18.6273C122.75 18.6273 122.046 18.4951 121.386 18.2317C120.725 17.9684 120.149 17.5817 119.658 17.0717C119.166 16.5617 118.773 15.925 118.476 15.1595C118.179 14.395 118.031 13.5106 118.031 12.5084C118.031 11.5395 118.17 10.6773 118.451 9.9206C118.73 9.16393 119.112 8.51838 119.594 7.98282C120.076 7.44727 120.636 7.03949 121.271 6.75949C121.907 6.47949 122.58 6.33838 123.291 6.33838C124.121 6.33838 124.845 6.49171 125.465 6.79727C126.083 7.10282 126.63 7.5106 127.104 8.0206H127.155L127.231 6.61838H130.561V16.765C130.561 17.4784 130.544 18.0395 130.51 18.4473C130.476 18.8551 130.4 19.2717 130.282 19.6962C129.926 21.005 129.24 22.0373 128.224 22.7939C127.207 23.5506 125.928 23.9284 124.386 23.9284C123.675 23.9284 123.03 23.8606 122.454 23.7239C121.878 23.5884 121.357 23.4139 120.891 23.2017C120.425 22.9895 120.014 22.7473 119.658 22.475C119.303 22.2028 118.997 21.9395 118.743 21.685L120.471 19.5695C120.98 20.1128 121.572 20.5295 122.25 20.8184C122.928 21.1073 123.563 21.2517 124.156 21.2517C124.698 21.2539 125.151 21.1639 125.516 20.9862ZM122.364 14.9439C122.864 15.5473 123.521 15.8484 124.334 15.8484C125.147 15.8484 125.795 15.5384 126.278 14.9184C126.761 14.2984 127.002 13.4784 127.002 12.4584C127.002 11.4384 126.752 10.6273 126.252 10.0239C125.753 9.4206 125.112 9.11949 124.334 9.11949C123.47 9.11949 122.801 9.43394 122.325 10.0628C121.851 10.6917 121.613 11.4995 121.613 12.485C121.614 13.5206 121.863 14.3406 122.364 14.9439Z" fill="#0052CC"/>
<path d="M139.163 15.7339C139.646 15.4873 140.09 15.0417 140.498 14.395L142.938 15.5928C142.429 16.595 141.68 17.3517 140.688 17.8617C139.697 18.3717 138.626 18.6262 137.474 18.6262C136.626 18.6262 135.825 18.4862 135.072 18.205C134.318 17.925 133.658 17.5162 133.089 16.9817C132.522 16.4462 132.073 15.8006 131.742 15.0439C131.412 14.2873 131.247 13.425 131.247 12.4562C131.247 11.6062 131.4 10.8073 131.705 10.0595C132.009 9.31171 132.434 8.66171 132.975 8.10949C133.518 7.55727 134.174 7.12393 134.945 6.80949C135.716 6.49504 136.559 6.33838 137.474 6.33838C138.405 6.33838 139.248 6.49949 140.003 6.82282C140.757 7.14616 141.4 7.59172 141.934 8.16172C142.468 8.73172 142.875 9.41505 143.154 10.2139C143.433 11.0128 143.574 11.8962 143.574 12.865V13.3239H134.831C134.898 14.1395 135.2 14.8073 135.733 15.325C136.267 15.8439 136.907 16.1028 137.652 16.1028C138.176 16.1039 138.68 15.9806 139.163 15.7339ZM135.72 9.55171C135.263 9.95949 134.975 10.5206 134.856 11.2339H139.965C139.83 10.4184 139.524 9.83172 139.05 9.47505C138.576 9.11838 138.042 8.93949 137.449 8.93949C136.754 8.9406 136.177 9.14393 135.72 9.55171Z" fill="#0052CC"/>
<path d="M28.7908 16.2601C28.5781 16.7134 28.258 17.1157 27.8315 17.4657C27.4051 17.8157 26.8767 18.099 26.2453 18.3123C25.6139 18.5257 24.8895 18.6334 24.0709 18.6334C23.4739 18.6334 22.9156 18.5734 22.395 18.4534C21.8744 18.3334 21.397 18.1801 20.9627 17.9912C20.5274 17.8034 20.1442 17.5934 19.8119 17.3623C19.4795 17.1312 19.2026 16.8956 18.98 16.6568L20.6936 14.5268C21.171 15.0223 21.7038 15.4123 22.292 15.6945C22.8802 15.9768 23.4728 16.1179 24.0698 16.1179C24.5639 16.1179 24.9438 16.0156 25.2085 15.8101C25.4733 15.6045 25.6051 15.3657 25.6051 15.0912C25.6051 14.7323 25.4002 14.4579 24.9914 14.2701C24.8042 14.1679 24.5949 14.0823 24.3645 14.0134C24.1341 13.9445 23.8992 13.8679 23.6611 13.7823L22.868 13.5512C22.5102 13.449 22.2067 13.3457 21.9597 13.2434C21.7127 13.1412 21.4778 13.0301 21.2563 12.9101C20.6083 12.5679 20.1397 12.179 19.8495 11.7423C19.5593 11.3056 19.4142 10.729 19.4142 10.0101C19.4142 9.54788 19.5205 9.09454 19.7343 8.65009C19.947 8.20565 20.2583 7.80343 20.6681 7.44454C21.0779 7.08565 21.5808 6.79898 22.1768 6.58454C22.7738 6.37121 23.4639 6.26343 24.2493 6.26343C24.8629 6.26343 25.409 6.32343 25.8864 6.44343C26.3639 6.56343 26.7859 6.70898 27.1525 6.88009C27.5192 7.0512 27.8393 7.24343 28.1118 7.45787C28.3843 7.67121 28.6235 7.86454 28.8285 8.03565L27.1149 10.0623C26.7737 9.72009 26.3395 9.4212 25.81 9.16454C25.2816 8.90787 24.7444 8.7801 24.1983 8.7801C23.7896 8.7801 23.4484 8.8701 23.1748 9.04898C22.9023 9.22898 22.765 9.46343 22.765 9.75454C22.765 9.97676 22.8547 10.1612 23.033 10.3068C23.2125 10.4523 23.4207 10.5679 23.66 10.6534C23.8815 10.739 24.1075 10.8201 24.3379 10.8968C24.5683 10.9734 24.8286 11.0545 25.1177 11.1401L25.9363 11.3968C26.3794 11.5334 26.8235 11.7179 27.2666 11.949C27.7097 12.1801 28.0941 12.4745 28.4175 12.8345C28.8783 13.3479 29.1087 14.0323 29.1087 14.8868C29.1109 15.349 29.0035 15.8068 28.7908 16.2601Z" fill="#0052CC"/>
<path d="M29.6227 9.96045C29.9295 9.20823 30.3648 8.55822 30.9275 8.01044C31.4902 7.46267 32.1681 7.03489 32.9612 6.72711C33.7544 6.41933 34.6283 6.26489 35.5832 6.26489C36.538 6.26489 37.4075 6.41933 38.1929 6.72711C38.9771 7.03489 39.6506 7.46267 40.2133 8.01044C40.776 8.55822 41.2113 9.20823 41.5182 9.96045C41.825 10.7127 41.979 11.5338 41.979 12.4238C41.979 13.3138 41.825 14.1382 41.5182 14.8993C41.2113 15.6604 40.776 16.3149 40.2133 16.8627C39.6506 17.4104 38.9771 17.8416 38.1929 18.1582C37.4086 18.4749 36.5391 18.6327 35.5832 18.6327C34.6283 18.6327 33.7544 18.4749 32.9612 18.1582C32.1681 17.8416 31.4902 17.4093 30.9275 16.8627C30.3648 16.3149 29.9295 15.6604 29.6227 14.8993C29.3158 14.1382 29.1619 13.3127 29.1619 12.4238C29.1619 11.5338 29.3147 10.7127 29.6227 9.96045ZM37.6291 14.8738C38.1231 14.2327 38.3712 13.416 38.3712 12.4238C38.3712 11.4316 38.1242 10.6238 37.6291 9.99934C37.135 9.37489 36.4527 9.06267 35.5832 9.06267C34.7136 9.06267 34.0268 9.37489 33.524 9.99934C33.0211 10.6238 32.7696 11.4316 32.7696 12.4238C32.7696 13.416 33.0211 14.2327 33.524 14.8738C34.0268 15.5149 34.7136 15.836 35.5832 15.836C36.4516 15.836 37.1339 15.5149 37.6291 14.8738Z" fill="#0052CC"/>
<path d="M44.049 17.3116C43.0765 16.4305 42.5913 15.126 42.5913 13.3982V6.54712H46.198V13.5516C46.198 14.3216 46.373 14.8949 46.7219 15.2705C47.0708 15.646 47.5538 15.8349 48.1674 15.8349C48.7468 15.8349 49.2286 15.6593 49.613 15.3093C49.9973 14.9593 50.189 14.3727 50.189 13.5516V6.54712H53.7956V13.3727C53.7956 14.296 53.6383 15.0916 53.3226 15.7593C53.0069 16.426 52.5938 16.9738 52.082 17.4016C51.5703 17.8293 50.9865 18.1416 50.3296 18.3382C49.6728 18.5349 49.0037 18.6338 48.3214 18.6338C46.445 18.6327 45.0216 18.1927 44.049 17.3116Z" fill="#0052CC"/>
<path d="M61.1753 9.60044C60.8596 9.53155 60.5827 9.49822 60.3434 9.49822C59.5592 9.49822 58.992 9.77156 58.642 10.3193C58.292 10.8671 58.1181 11.5771 58.1181 12.4493V18.3504H54.5114V6.54711H57.8877L57.9641 8.00934H58.015C58.4925 7.41045 58.9998 6.97045 59.537 6.68823C60.0742 6.406 60.6159 6.26489 61.1609 6.26489C61.4677 6.26489 61.7535 6.29934 62.0182 6.36711C62.283 6.436 62.5344 6.52933 62.7726 6.64933L62.108 9.88267C61.8022 9.76378 61.491 9.66933 61.1753 9.60044Z" fill="#0052CC"/>
<path d="M66.0226 13.9118C66.1766 14.3396 66.3759 14.694 66.6241 14.9763C66.8711 15.2585 67.1613 15.4718 67.4936 15.6174C67.8259 15.7629 68.1715 15.8352 68.5293 15.8352C69.1086 15.8352 69.5827 15.7107 69.9494 15.4629C70.316 15.2152 70.6959 14.7829 71.0881 14.1674L73.5948 15.6296C73.0155 16.6052 72.2777 17.3485 71.3816 17.8618C70.4866 18.3752 69.493 18.6318 68.4019 18.6318C67.5833 18.6318 66.7991 18.4863 66.0481 18.1952C65.2982 17.9041 64.6369 17.4896 64.0653 16.9507C63.4937 16.4118 63.0374 15.7618 62.6973 15.0007C62.3561 14.2396 62.1855 13.3796 62.1855 12.4218C62.1855 11.464 62.3561 10.6041 62.6973 9.84294C63.0385 9.08183 63.4948 8.43628 64.0653 7.90516C64.6369 7.37516 65.2971 6.96849 66.0481 6.68627C66.798 6.40405 67.5833 6.26294 68.4019 6.26294C69.493 6.26294 70.4866 6.51961 71.3816 7.03294C72.2766 7.54627 73.0143 8.29072 73.5948 9.26516L71.0881 10.7274C70.8665 10.3507 70.5553 9.9785 70.1543 9.61072C69.7533 9.24294 69.2116 9.0596 68.5304 9.0596C67.7118 9.0596 67.0505 9.37183 66.5476 9.99627C66.0447 10.6207 65.7933 11.4285 65.7933 12.4207C65.7922 12.9885 65.8686 13.4841 66.0226 13.9118Z" fill="#0052CC"/>
<path d="M81.3069 15.7204C81.7931 15.4727 82.2406 15.0238 82.6494 14.3738L85.1051 15.5793C84.5934 16.5882 83.839 17.3493 82.841 17.8627C81.843 18.376 80.7652 18.6327 79.6054 18.6327C78.7525 18.6327 77.9472 18.4916 77.1885 18.2093C76.4297 17.9271 75.764 17.5171 75.1935 16.9782C74.623 16.4393 74.17 15.7893 73.8377 15.0282C73.5054 14.2671 73.3392 13.3993 73.3392 12.4238C73.3392 11.5682 73.4932 10.7649 73.8 10.0116C74.1069 9.25933 74.5333 8.60489 75.0794 8.04822C75.6255 7.49267 76.2857 7.056 77.0622 6.73933C77.8376 6.42267 78.6861 6.26489 79.6077 6.26489C80.5459 6.26489 81.3944 6.42712 82.1531 6.75267C82.9119 7.07712 83.5599 7.52712 84.0971 8.09934C84.6344 8.67267 85.0431 9.36045 85.3245 10.1649C85.6058 10.9693 85.7465 11.8582 85.7465 12.8338V13.296H76.947C77.0157 14.1171 77.3181 14.7882 77.8553 15.3104C78.3925 15.8327 79.0361 16.0927 79.7871 16.0927C80.3133 16.0927 80.8217 15.9682 81.3069 15.7204ZM77.8409 9.49822C77.3801 9.90822 77.091 10.4738 76.9714 11.1916H82.1133C81.977 10.3704 81.6702 9.78044 81.1928 9.42156C80.7154 9.06267 80.1781 8.88267 79.5811 8.88267C78.881 8.88267 78.3017 9.08822 77.8409 9.49822Z" fill="#0052CC"/>
<path d="M19.1101 12.8313C19.1101 11.8569 18.9694 10.968 18.6881 10.1635C18.4067 9.3602 17.998 8.67132 17.4607 8.09909C16.9235 7.52576 16.2766 7.07798 15.5178 6.75243C14.7591 6.42798 13.9117 6.26465 12.9735 6.26465C12.053 6.26465 11.2045 6.42243 10.4291 6.7391C9.76006 7.01243 9.17741 7.37465 8.67895 7.82576L7.93015 11.468L6.85236 11.048C6.75821 11.4902 6.70947 11.9469 6.70947 12.4202C6.70947 13.3947 6.87563 14.2624 7.20793 15.0235C7.54024 15.7846 7.99218 16.4346 8.56264 16.9724C9.13421 17.5113 9.79882 17.9213 10.5565 18.2035C11.3153 18.4858 12.1205 18.6269 12.9724 18.6269C14.131 18.6269 15.2099 18.3702 16.2068 17.858C17.2037 17.3446 17.9581 16.5846 18.4698 15.5758L16.0152 14.3702C15.6065 15.0202 15.1589 15.4691 14.6727 15.7169C14.1864 15.9646 13.6802 16.0891 13.1518 16.0891C12.4019 16.0891 11.7583 15.828 11.2211 15.3069C10.6839 14.7858 10.3815 14.1146 10.3139 13.2935H19.109V12.8313H19.1101ZM10.3405 11.1902C10.4601 10.4724 10.7492 9.90798 11.21 9.49798C11.6697 9.08798 12.2501 8.88243 12.9491 8.88243C13.5461 8.88243 14.0823 9.06242 14.5597 9.42131C15.0371 9.7802 15.3439 10.3702 15.4802 11.1913H10.3405V11.1902Z" fill="#0052CC"/>
<path d="M6.67947 9.60031C6.36378 9.53143 6.08686 9.49809 5.8487 9.49809C5.06446 9.49809 4.49732 9.77142 4.1484 10.3192C3.79948 10.8659 3.62446 11.5759 3.62446 12.4481V18.347H0.0189209V6.54809H3.39406L3.47049 8.01031H3.52145C3.99886 7.41143 4.50618 6.97142 5.04341 6.6892C5.58064 6.40698 6.1212 6.26587 6.66729 6.26587C6.97412 6.26587 7.25991 6.30031 7.52354 6.36809C7.78717 6.43698 8.03861 6.53031 8.27788 6.65031L7.61326 9.88142C7.30532 9.76253 6.99406 9.6692 6.67947 9.60031Z" fill="#0052CC"/>
</svg>