<svg width="64" height="64" viewBox="0 0 64 64" fill="none" xmlns="http://www.w3.org/2000/svg">
<circle cx="32" cy="32" r="32" fill="#42526E"/>
<g clip-path="url(#clip0_1_467)">
<path d="M33.3322 48.139H32.0187C31.9014 48.139 31.7889 48.0924 31.706 48.0095C31.623 47.9266 31.5764 47.8141 31.5764 47.6968C31.5764 47.5795 31.623 47.467 31.706 47.3841C31.7889 47.3011 31.9014 47.2545 32.0187 47.2545H33.3322C33.4495 47.2545 33.562 47.3011 33.6449 47.3841C33.7278 47.467 33.7744 47.5795 33.7744 47.6968C33.7744 47.8141 33.7278 47.9266 33.6449 48.0095C33.562 48.0924 33.4495 48.139 33.3322 48.139Z" fill="#FAFBFC"/>
<path d="M46.516 48.139H36.428C36.3107 48.139 36.1982 48.0925 36.1153 48.0095C36.0323 47.9266 35.9858 47.8141 35.9858 47.6968C35.9858 47.5795 36.0323 47.467 36.1153 47.3841C36.1982 47.3011 36.3107 47.2545 36.428 47.2545H46.516C46.6333 47.2545 46.7458 47.2079 46.8287 47.125C46.9116 47.0421 46.9582 46.9296 46.9582 46.8123V26.7911H17.769V46.8123C17.769 46.9296 17.8156 47.0421 17.8986 47.125C17.9815 47.2079 18.094 47.2545 18.2113 47.2545H24.5445C24.6618 47.2545 24.7743 47.3011 24.8572 47.3841C24.9401 47.467 24.9867 47.5795 24.9867 47.6968C24.9867 47.8141 24.9401 47.9266 24.8572 48.0095C24.7743 48.0925 24.6618 48.139 24.5445 48.139H18.2113C17.8594 48.139 17.5219 47.9993 17.2731 47.7504C17.0243 47.5016 16.8845 47.1642 16.8845 46.8123V26.3489C16.8845 26.2316 16.9311 26.1191 17.0141 26.0362C17.097 25.9532 17.2095 25.9066 17.3268 25.9066H47.4005C47.5178 25.9066 47.6303 25.9532 47.7132 26.0362C47.7962 26.1191 47.8428 26.2316 47.8428 26.3489V46.8123C47.8428 47.1642 47.703 47.5016 47.4541 47.7504C47.2053 47.9993 46.8679 48.139 46.516 48.139Z" fill="#FAFBFC"/>
<path d="M28.9228 48.139H27.6403C27.523 48.139 27.4105 48.0924 27.3275 48.0095C27.2446 47.9266 27.198 47.8141 27.198 47.6968C27.198 47.5795 27.2446 47.467 27.3275 47.3841C27.4105 47.3011 27.523 47.2545 27.6403 47.2545H28.9228C29.0401 47.2545 29.1526 47.3011 29.2356 47.3841C29.3185 47.467 29.3651 47.5795 29.3651 47.6968C29.3651 47.8141 29.3185 47.9266 29.2356 48.0095C29.1526 48.0924 29.0401 48.139 28.9228 48.139Z" fill="#FAFBFC"/>
<path d="M47.4005 26.7913H17.3268C17.2095 26.7913 17.097 26.7447 17.0141 26.6617C16.9311 26.5788 16.8845 26.4663 16.8845 26.349V21.0419C16.8845 20.69 17.0243 20.3525 17.2731 20.1037C17.5219 19.8549 17.8594 19.7151 18.2113 19.7151H22.5322C22.6495 19.7151 22.762 19.7617 22.8449 19.8446C22.9279 19.9276 22.9744 20.0401 22.9744 20.1573C22.9744 20.2746 22.9279 20.3871 22.8449 20.4701C22.762 20.553 22.6495 20.5996 22.5322 20.5996H18.2113C18.094 20.5996 17.9815 20.6462 17.8986 20.7291C17.8156 20.8121 17.769 20.9246 17.769 21.0419V25.9067H46.9582V21.0419C46.9582 20.9246 46.9116 20.8121 46.8287 20.7291C46.7458 20.6462 46.6333 20.5996 46.516 20.5996H42.1951C42.0778 20.5996 41.9653 20.553 41.8824 20.4701C41.7994 20.3871 41.7528 20.2746 41.7528 20.1573C41.7528 20.0401 41.7994 19.9276 41.8824 19.8446C41.9653 19.7617 42.0778 19.7151 42.1951 19.7151H46.516C46.8679 19.7151 47.2053 19.8549 47.4541 20.1037C47.703 20.3525 47.8428 20.69 47.8428 21.0419V26.349C47.8428 26.4663 47.7962 26.5788 47.7132 26.6617C47.6303 26.7447 47.5178 26.7913 47.4005 26.7913Z" fill="#FAFBFC"/>
<path d="M39.2142 20.5996H25.513C25.3957 20.5996 25.2832 20.553 25.2003 20.4701C25.1173 20.3871 25.0707 20.2746 25.0707 20.1573C25.0707 20.0401 25.1173 19.9276 25.2003 19.8446C25.2832 19.7617 25.3957 19.7151 25.513 19.7151H39.2142C39.3315 19.7151 39.444 19.7617 39.5269 19.8446C39.6099 19.9276 39.6565 20.0401 39.6565 20.1573C39.6565 20.2746 39.6099 20.3871 39.5269 20.4701C39.444 20.553 39.3315 20.5996 39.2142 20.5996Z" fill="#FAFBFC"/>
<path d="M41.7904 23.1333H39.6202C39.3955 23.1329 39.18 23.0435 39.0211 22.8846C38.8622 22.7257 38.7728 22.5102 38.7724 22.2855V18.0287C38.7728 17.804 38.8622 17.5885 39.0211 17.4296C39.18 17.2707 39.3955 17.1813 39.6202 17.1809H41.7904C42.0152 17.1811 42.2307 17.2705 42.3896 17.4295C42.5486 17.5884 42.638 17.8039 42.6382 18.0287V22.2855C42.638 22.5103 42.5486 22.7258 42.3896 22.8847C42.2307 23.0437 42.0152 23.1331 41.7904 23.1333ZM39.6569 22.2488H41.7537V18.0654H39.6569V22.2488Z" fill="#FAFBFC"/>
<path d="M25.107 23.1333H22.9368C22.7121 23.1331 22.4966 23.0437 22.3376 22.8847C22.1787 22.7258 22.0893 22.5103 22.089 22.2855V18.0287C22.0893 17.8039 22.1787 17.5884 22.3376 17.4295C22.4966 17.2705 22.7121 17.1811 22.9368 17.1809H25.107C25.3318 17.1813 25.5472 17.2707 25.7061 17.4296C25.8651 17.5885 25.9545 17.804 25.9548 18.0287V22.2855C25.9545 22.5102 25.8651 22.7257 25.7061 22.8846C25.5472 23.0435 25.3318 23.1329 25.107 23.1333ZM22.9736 22.2488H25.0703V18.0654H22.9736V22.2488Z" fill="#FAFBFC"/>
<path d="M30.3138 33.3516H27.7964C27.5958 33.3513 27.4035 33.2715 27.2616 33.1297C27.1198 32.9878 27.04 32.7955 27.0397 32.5949V30.0775C27.0398 29.8769 27.1196 29.6844 27.2615 29.5426C27.4034 29.4007 27.5958 29.3209 27.7964 29.3208H30.3138C30.5144 29.3209 30.7068 29.4007 30.8487 29.5426C30.9906 29.6844 31.0704 29.8769 31.0705 30.0775V32.5949C31.0702 32.7955 30.9904 32.9878 30.8486 33.1297C30.7067 33.2715 30.5144 33.3513 30.3138 33.3516ZM27.9256 32.467H30.1873V30.2053H27.9242L27.9256 32.467Z" fill="#FAFBFC"/>
<path d="M36.9309 33.3516H34.4135C34.2129 33.3513 34.0206 33.2715 33.8787 33.1297C33.7368 32.9878 33.657 32.7955 33.6568 32.5949V30.0775C33.6569 29.8769 33.7367 29.6844 33.8786 29.5426C34.0205 29.4007 34.2129 29.3209 34.4135 29.3208H36.9309C37.1315 29.3209 37.3239 29.4007 37.4658 29.5426C37.6077 29.6844 37.6875 29.8769 37.6876 30.0775V32.5949C37.6873 32.7955 37.6075 32.9878 37.4657 33.1297C37.3238 33.2715 37.1315 33.3513 36.9309 33.3516ZM34.5427 32.467H36.8044V30.2053H34.5413L34.5427 32.467Z" fill="#FAFBFC"/>
<path d="M43.548 33.3516H41.0319C40.8313 33.3513 40.639 33.2715 40.4971 33.1297C40.3553 32.9878 40.2755 32.7955 40.2752 32.5949V30.0775C40.2754 29.8769 40.3551 29.6844 40.497 29.5426C40.6389 29.4007 40.8313 29.3209 41.0319 29.3208H43.5493C43.7497 29.3214 43.9417 29.4013 44.0833 29.5432C44.2248 29.685 44.3044 29.8771 44.3047 30.0775V32.5949C44.3043 32.7954 44.2245 32.9877 44.0827 33.1295C43.9408 33.2714 43.7486 33.3512 43.548 33.3516ZM41.1598 32.467H43.4202V30.2053H41.1584L41.1598 32.467Z" fill="#FAFBFC"/>
<path d="M23.6954 39.0965H21.1793C20.9787 39.0962 20.7865 39.0163 20.6446 38.8745C20.5028 38.7327 20.423 38.5404 20.4226 38.3398V35.8225C20.4229 35.6218 20.5026 35.4294 20.6445 35.2875C20.7863 35.1456 20.9787 35.0657 21.1793 35.0653H23.6954C23.896 35.0655 24.0885 35.1454 24.2303 35.2874C24.3722 35.4293 24.4519 35.6218 24.4521 35.8225V38.3398C24.4518 38.5404 24.372 38.7328 24.2302 38.8746C24.0883 39.0165 23.896 39.0963 23.6954 39.0965ZM21.3071 38.212H23.5689V35.9498H21.3071V38.212Z" fill="#FAFBFC"/>
<path d="M30.3138 39.0965H27.7964C27.5958 39.0963 27.4035 39.0165 27.2616 38.8746C27.1198 38.7328 27.04 38.5404 27.0397 38.3398V35.8225C27.0398 35.6218 27.1196 35.4293 27.2615 35.2874C27.4033 35.1454 27.5957 35.0655 27.7964 35.0653H30.3138C30.5145 35.0655 30.7069 35.1454 30.8487 35.2874C30.9906 35.4293 31.0704 35.6218 31.0705 35.8225V38.3398C31.0702 38.5404 30.9904 38.7328 30.8486 38.8746C30.7067 39.0165 30.5144 39.0963 30.3138 39.0965ZM27.9256 38.212H30.1873V35.9498H27.9242L27.9256 38.212Z" fill="#FAFBFC"/>
<path d="M36.9309 39.0965H34.4135C34.2129 39.0963 34.0206 39.0165 33.8787 38.8746C33.7368 38.7328 33.657 38.5404 33.6568 38.3398V35.8225C33.6569 35.6218 33.7367 35.4293 33.8786 35.2874C34.0204 35.1454 34.2128 35.0655 34.4135 35.0653H36.9309C37.1316 35.0655 37.324 35.1454 37.4658 35.2874C37.6077 35.4293 37.6875 35.6218 37.6876 35.8225V38.3398C37.6873 38.5404 37.6075 38.7328 37.4657 38.8746C37.3238 39.0165 37.1315 39.0963 36.9309 39.0965ZM34.5427 38.212H36.8044V35.9498H34.5413L34.5427 38.212Z" fill="#FAFBFC"/>
<path d="M43.548 39.0965H41.0319C40.8313 39.0963 40.639 39.0165 40.4971 38.8746C40.3553 38.7328 40.2755 38.5404 40.2752 38.3398V35.8225C40.2754 35.6218 40.3551 35.4293 40.497 35.2874C40.6388 35.1454 40.8312 35.0655 41.0319 35.0653H43.5493C43.7497 35.066 43.9417 35.1461 44.0833 35.288C44.2248 35.4298 44.3044 35.622 44.3047 35.8225V38.3398C44.3043 38.5404 44.2245 38.7327 44.0827 38.8745C43.9408 39.0163 43.7486 39.0962 43.548 39.0965ZM41.1598 38.212H43.4202V35.9498H41.1584L41.1598 38.212Z" fill="#FAFBFC"/>
<path d="M23.6954 44.8417H21.1793C20.9785 44.8413 20.786 44.7613 20.6442 44.6192C20.5023 44.4771 20.4226 44.2845 20.4226 44.0836V41.5676C20.4229 41.367 20.5027 41.1747 20.6445 41.0328C20.7864 40.8909 20.9787 40.8111 21.1793 40.8109H23.6954C23.896 40.811 24.0884 40.8908 24.2303 41.0327C24.3722 41.1746 24.4519 41.367 24.4521 41.5676V44.0836C24.4522 44.2845 24.3725 44.4772 24.2306 44.6193C24.0887 44.7615 23.8962 44.8414 23.6954 44.8417ZM21.3071 43.9572H23.5689V41.6954H21.3071V43.9572Z" fill="#FAFBFC"/>
<path d="M30.3138 44.8417H27.7964C27.5956 44.8414 27.403 44.7615 27.2611 44.6193C27.1192 44.4772 27.0396 44.2845 27.0397 44.0836V41.5676C27.0398 41.367 27.1196 41.1746 27.2615 41.0327C27.4034 40.8908 27.5958 40.811 27.7964 40.8109H30.3138C30.5144 40.811 30.7068 40.8908 30.8487 41.0327C30.9906 41.1746 31.0704 41.367 31.0705 41.5676V44.0836C31.0706 44.2845 30.991 44.4772 30.8491 44.6193C30.7072 44.7615 30.5146 44.8414 30.3138 44.8417ZM27.9256 43.9572H30.1873V41.6954H27.9242L27.9256 43.9572Z" fill="#FAFBFC"/>
<path d="M36.9309 44.8417H34.4135C34.2127 44.8414 34.0201 44.7615 33.8782 44.6193C33.7363 44.4772 33.6567 44.2845 33.6568 44.0836V41.5676C33.6569 41.367 33.7367 41.1746 33.8786 41.0327C34.0205 40.8908 34.2129 40.811 34.4135 40.8109H36.9309C37.1315 40.811 37.3239 40.8908 37.4658 41.0327C37.6077 41.1746 37.6875 41.367 37.6876 41.5676V44.0836C37.6877 44.2845 37.6081 44.4772 37.4662 44.6193C37.3243 44.7615 37.1317 44.8414 36.9309 44.8417ZM34.5427 43.9572H36.8044V41.6954H34.5413L34.5427 43.9572Z" fill="#FAFBFC"/>
</g>
<defs>
<clipPath id="clip0_1_467">
<rect width="32.7273" height="32.7273" fill="white" transform="translate(16 16)"/>
</clipPath>
</defs>
</svg>
