<svg width="64" height="64" viewBox="0 0 64 64" fill="none" xmlns="http://www.w3.org/2000/svg">
<circle cx="32" cy="32" r="32" fill="#008DA6"/>
<path d="M17.2972 28.9731C17.2069 28.973 17.1188 28.9446 17.0454 28.8919C16.972 28.8392 16.917 28.7649 16.888 28.6793C16.8591 28.5937 16.8576 28.5012 16.884 28.4147C16.9103 28.3283 16.963 28.2522 17.0348 28.1973L21.7915 24.5601C21.8828 24.4929 21.9968 24.4643 22.109 24.4803C22.2212 24.4963 22.3227 24.5558 22.3915 24.6459C22.4603 24.7359 22.491 24.8494 22.477 24.9619C22.4629 25.0744 22.4053 25.1768 22.3165 25.2473L17.5597 28.884C17.4845 28.9419 17.3922 28.9732 17.2972 28.9731Z" fill="white"/>
<path d="M46.7027 47.1354H37.3794C37.2647 47.1354 37.1547 47.0898 37.0736 47.0087C36.9926 46.9276 36.947 46.8176 36.947 46.7029C36.947 46.5882 36.9926 46.4783 37.0736 46.3972C37.1547 46.3161 37.2647 46.2705 37.3794 46.2705H46.2702V28.5408C46.2702 28.4261 46.3158 28.3161 46.3969 28.235C46.478 28.1539 46.588 28.1083 46.7027 28.1083C46.8173 28.1083 46.9273 28.1539 47.0084 28.235C47.0895 28.3161 47.1351 28.4261 47.1351 28.5408V46.7029C47.1351 46.8176 47.0895 46.9276 47.0084 47.0087C46.9273 47.0898 46.8173 47.1354 46.7027 47.1354Z" fill="white"/>
<path d="M30.041 47.1353H28.7827C28.668 47.1353 28.558 47.0897 28.4769 47.0086C28.3958 46.9275 28.3502 46.8175 28.3502 46.7028C28.3502 46.5881 28.3958 46.4781 28.4769 46.397C28.558 46.3159 28.668 46.2704 28.7827 46.2704H30.041C30.1557 46.2704 30.2657 46.3159 30.3468 46.397C30.4279 46.4781 30.4735 46.5881 30.4735 46.7028C30.4735 46.8175 30.4279 46.9275 30.3468 47.0086C30.2657 47.0897 30.1557 47.1353 30.041 47.1353Z" fill="white"/>
<path d="M25.7556 47.1354H17.2972C17.1826 47.1354 17.0726 47.0898 16.9915 47.0087C16.9104 46.9276 16.8648 46.8176 16.8648 46.7029V28.5408C16.8648 28.4261 16.9104 28.3161 16.9915 28.235C17.0726 28.1539 17.1826 28.1083 17.2972 28.1083C17.4119 28.1083 17.5219 28.1539 17.603 28.235C17.6841 28.3161 17.7297 28.4261 17.7297 28.5408V46.2705H25.7556C25.8703 46.2705 25.9803 46.3161 26.0614 46.3972C26.1425 46.4783 26.1881 46.5882 26.1881 46.7029C26.1881 46.8176 26.1425 46.9276 26.0614 47.0087C25.9803 47.0898 25.8703 47.1354 25.7556 47.1354Z" fill="white"/>
<path d="M34.3525 47.1353H33.0681C32.9535 47.1353 32.8435 47.0897 32.7624 47.0086C32.6813 46.9275 32.6357 46.8175 32.6357 46.7028C32.6357 46.5881 32.6813 46.4781 32.7624 46.397C32.8435 46.3159 32.9535 46.2704 33.0681 46.2704H34.3525C34.4671 46.2704 34.5771 46.3159 34.6582 46.397C34.7393 46.4781 34.7849 46.5881 34.7849 46.7028C34.7849 46.8175 34.7393 46.9275 34.6582 47.0086C34.5771 47.0897 34.4671 47.1353 34.3525 47.1353Z" fill="white"/>
<path d="M35.7444 20.5924C35.6497 20.5923 35.5576 20.5612 35.4823 20.5037L32 17.8417L28.5176 20.5037C28.4265 20.5734 28.3114 20.604 28.1977 20.5889C28.084 20.5737 27.981 20.514 27.9113 20.4229C27.8416 20.3317 27.811 20.2167 27.8262 20.103C27.8414 19.9893 27.9011 19.8863 27.9922 19.8166L31.7375 16.9539C31.8129 16.8963 31.9051 16.8651 32 16.8651C32.0948 16.8651 32.1871 16.8963 32.2624 16.9539L36.0077 19.8166C36.0795 19.8716 36.1323 19.9477 36.1586 20.0342C36.1849 20.1207 36.1834 20.2133 36.1543 20.299C36.1253 20.3846 36.0701 20.459 35.9965 20.5116C35.923 20.5642 35.8348 20.5925 35.7444 20.5924Z" fill="white"/>
<path d="M46.7028 28.9729C46.6078 28.973 46.5155 28.9417 46.4403 28.8838L41.6835 25.2471C41.6009 25.1747 41.549 25.0737 41.5381 24.9644C41.5273 24.8552 41.5585 24.7459 41.6253 24.6588C41.692 24.5716 41.7895 24.5132 41.8978 24.4952C42.0061 24.4773 42.1172 24.5012 42.2085 24.5621L46.9652 28.1993C47.0361 28.2545 47.088 28.3304 47.1138 28.4164C47.1396 28.5024 47.1379 28.5944 47.1091 28.6794C47.0802 28.7645 47.0256 28.8384 46.9528 28.891C46.88 28.9436 46.7926 28.9722 46.7028 28.9729Z" fill="white"/>
<path d="M32 39.4125C30.5937 39.4142 29.2306 38.9264 28.1448 38.0326L17.0222 28.8728C16.9337 28.7999 16.8778 28.6948 16.8667 28.5806C16.8557 28.4664 16.8905 28.3525 16.9634 28.264C17.0364 28.1754 17.1415 28.1195 17.2557 28.1085C17.3699 28.0974 17.4838 28.1322 17.5723 28.2051L28.6949 37.3649C29.6266 38.1297 30.7946 38.5477 32 38.5477C33.2053 38.5477 34.3734 38.1297 35.3051 37.3649L46.4276 28.2051C46.4715 28.169 46.522 28.1419 46.5763 28.1253C46.6307 28.1087 46.6877 28.103 46.7443 28.1085C46.8008 28.1139 46.8557 28.1305 46.9059 28.1571C46.956 28.1838 47.0004 28.2201 47.0365 28.264C47.0726 28.3078 47.0998 28.3583 47.1163 28.4126C47.1329 28.467 47.1387 28.524 47.1332 28.5806C47.1277 28.6371 47.1112 28.692 47.0845 28.7422C47.0578 28.7923 47.0215 28.8367 46.9777 28.8728L35.8551 38.0326C34.7693 38.9264 33.4063 39.4142 32 39.4125Z" fill="white"/>
<path d="M46.7027 47.1352C46.6023 47.1352 46.5051 47.1003 46.4276 47.0366L35.4006 37.9555C35.3568 37.9193 35.3205 37.8749 35.2938 37.8248C35.2671 37.7747 35.2506 37.7197 35.2451 37.6632C35.2396 37.6067 35.2454 37.5496 35.262 37.4953C35.2786 37.441 35.3057 37.3904 35.3418 37.3466C35.3779 37.3028 35.4223 37.2665 35.4725 37.2398C35.5226 37.2131 35.5775 37.1966 35.6341 37.1911C35.6906 37.1856 35.7477 37.1914 35.802 37.2079C35.8563 37.2245 35.9068 37.2517 35.9507 37.2878L46.9777 46.3689C47.0465 46.4255 47.0961 46.502 47.1197 46.5879C47.1434 46.6738 47.1399 46.7649 47.1098 46.8488C47.0797 46.9327 47.0245 47.0052 46.9516 47.0564C46.8787 47.1077 46.7918 47.1352 46.7027 47.1352Z" fill="white"/>
<path d="M17.2973 47.1351C17.2082 47.1352 17.1213 47.1077 17.0484 47.0564C16.9755 47.0052 16.9202 46.9327 16.8901 46.8488C16.86 46.7649 16.8566 46.6738 16.8802 46.5879C16.9039 46.502 16.9535 46.4255 17.0223 46.3689L28.0493 37.2878C28.1379 37.2148 28.2517 37.1801 28.3659 37.1911C28.4801 37.2021 28.5852 37.2581 28.6582 37.3466C28.7311 37.4351 28.7659 37.549 28.7549 37.6632C28.7438 37.7774 28.6879 37.8825 28.5994 37.9555L17.5723 47.0365C17.4949 47.1003 17.3976 47.1352 17.2973 47.1351Z" fill="white"/>
<path d="M41.946 32.8907C41.8313 32.8907 41.7213 32.8451 41.6402 32.764C41.5591 32.6829 41.5135 32.5729 41.5135 32.4583V20.5945H22.4865V32.4583C22.4865 32.5729 22.4409 32.6829 22.3599 32.764C22.2788 32.8451 22.1688 32.8907 22.0541 32.8907C21.9394 32.8907 21.8294 32.8451 21.7483 32.764C21.6672 32.6829 21.6216 32.5729 21.6216 32.4583V20.162C21.6216 20.0474 21.6672 19.9374 21.7483 19.8563C21.8294 19.7752 21.9394 19.7296 22.0541 19.7296H41.946C42.0607 19.7296 42.1706 19.7752 42.2517 19.8563C42.3328 19.9374 42.3784 20.0474 42.3784 20.162V32.4583C42.3784 32.5729 42.3328 32.6829 42.2517 32.764C42.1706 32.8451 42.0607 32.8907 41.946 32.8907Z" fill="white"/>
<path d="M32 28.0856C31.5914 28.0856 31.192 27.9644 30.8523 27.7374C30.5126 27.5104 30.2478 27.1878 30.0915 26.8104C29.9351 26.4329 29.8942 26.0175 29.9739 25.6168C30.0536 25.2161 30.2504 24.848 30.5393 24.5591C30.8282 24.2702 31.1963 24.0735 31.597 23.9938C31.9977 23.9141 32.413 23.955 32.7905 24.1113C33.168 24.2677 33.4906 24.5325 33.7176 24.8722C33.9445 25.2119 34.0657 25.6113 34.0657 26.0198C34.0657 26.1345 34.0201 26.2445 33.939 26.3256C33.8579 26.4067 33.748 26.4523 33.6333 26.4523C33.5186 26.4523 33.4086 26.4067 33.3275 26.3256C33.2464 26.2445 33.2008 26.1345 33.2008 26.0198C33.2008 25.7823 33.1304 25.5502 32.9985 25.3527C32.8665 25.1552 32.679 25.0013 32.4595 24.9104C32.2401 24.8195 31.9986 24.7957 31.7657 24.842C31.5327 24.8884 31.3188 25.0028 31.1508 25.1707C30.9829 25.3386 30.8685 25.5526 30.8222 25.7856C30.7758 26.0185 30.7996 26.26 30.8905 26.4794C30.9814 26.6988 31.1353 26.8864 31.3328 27.0183C31.5303 27.1503 31.7625 27.2207 32 27.2207C32.1147 27.2207 32.2246 27.2663 32.3057 27.3474C32.3868 27.4285 32.4324 27.5384 32.4324 27.6531C32.4324 27.7678 32.3868 27.8778 32.3057 27.9589C32.2246 28.04 32.1147 28.0856 32 28.0856Z" fill="white"/>
<path d="M32 31.3512C31.4523 31.3506 30.9272 31.1328 30.5399 30.7455C30.1526 30.3582 29.9348 29.8331 29.9342 29.2854C29.9342 29.1708 29.9798 29.0608 30.0609 28.9797C30.142 28.8986 30.252 28.853 30.3667 28.853C30.4814 28.853 30.5913 28.8986 30.6724 28.9797C30.7535 29.0608 30.7991 29.1708 30.7991 29.2854C30.7989 29.523 30.8692 29.7553 31.0011 29.9528C31.1329 30.1504 31.3204 30.3045 31.5398 30.3955C31.7592 30.4865 32.0007 30.5104 32.2337 30.4642C32.4667 30.418 32.6808 30.3037 32.8488 30.1358C33.0168 29.9678 33.1313 29.7539 33.1777 29.5209C33.2241 29.2879 33.2004 29.0464 33.1095 28.827C33.0186 28.6075 32.8647 28.4199 32.6672 28.2879C32.4697 28.1559 32.2375 28.0854 32 28.0854C31.8853 28.0854 31.7753 28.0399 31.6942 27.9588C31.6131 27.8777 31.5675 27.7677 31.5675 27.653C31.5675 27.5383 31.6131 27.4283 31.6942 27.3472C31.7753 27.2661 31.8853 27.2206 32 27.2206C32.2747 27.215 32.5479 27.2642 32.8034 27.3655C33.0589 27.4668 33.2916 27.618 33.4879 27.8103C33.6842 28.0027 33.8402 28.2322 33.9467 28.4856C34.0531 28.739 34.108 29.011 34.108 29.2859C34.108 29.5607 34.0531 29.8328 33.9467 30.0862C33.8402 30.3395 33.6842 30.5691 33.4879 30.7614C33.2916 30.9538 33.0589 31.105 32.8034 31.2063C32.5479 31.3075 32.2747 31.3568 32 31.3512Z" fill="white"/>
<path d="M32.0026 32.1805C31.888 32.1805 31.778 32.1349 31.6969 32.0538C31.6158 31.9727 31.5702 31.8627 31.5702 31.7481V30.9221C31.5702 30.8074 31.6158 30.6974 31.6969 30.6163C31.778 30.5352 31.888 30.4897 32.0026 30.4897C32.1173 30.4897 32.2273 30.5352 32.3084 30.6163C32.3895 30.6974 32.4351 30.8074 32.4351 30.9221V31.7481C32.4351 31.8627 32.3895 31.9727 32.3084 32.0538C32.2273 32.1349 32.1173 32.1805 32.0026 32.1805Z" fill="white"/>
<path d="M32.0026 24.8214C31.888 24.8214 31.778 24.7759 31.6969 24.6948C31.6158 24.6137 31.5702 24.5037 31.5702 24.389V23.5583C31.5702 23.4436 31.6158 23.3336 31.6969 23.2525C31.778 23.1714 31.888 23.1259 32.0026 23.1259C32.1173 23.1259 32.2273 23.1714 32.3084 23.2525C32.3895 23.3336 32.4351 23.4436 32.4351 23.5583V24.389C32.4351 24.5037 32.3895 24.6137 32.3084 24.6948C32.2273 24.7759 32.1173 24.8214 32.0026 24.8214Z" fill="white"/>
</svg>
