<svg width="64" height="64" viewBox="0 0 64 64" fill="none" xmlns="http://www.w3.org/2000/svg">
<circle cx="32" cy="32" r="32" fill="#008DA6"/>
<path d="M34.2443 42.2498H32.96C32.8453 42.2498 32.7353 42.2042 32.6542 42.1231C32.5731 42.042 32.5276 41.932 32.5276 41.8173C32.5276 41.7026 32.5731 41.5926 32.6542 41.5115C32.7353 41.4304 32.8453 41.3849 32.96 41.3849H34.2443C34.359 41.3849 34.469 41.4304 34.5501 41.5115C34.6312 41.5926 34.6768 41.7026 34.6768 41.8173C34.6768 41.932 34.6312 42.042 34.5501 42.1231C34.469 42.2042 34.359 42.2498 34.2443 42.2498Z" fill="#FAFBFC"/>
<path d="M46.7027 42.2497H37.2714C37.1567 42.2497 37.0467 42.2041 36.9656 42.123C36.8845 42.0419 36.8389 41.9319 36.8389 41.8172C36.8389 41.7026 36.8845 41.5926 36.9656 41.5115C37.0467 41.4304 37.1567 41.3848 37.2714 41.3848H46.0805L41.6692 29.5266L39.3393 31.4293C39.2933 31.4667 39.2401 31.4941 39.1831 31.51C39.126 31.526 39.0663 31.53 39.0076 31.5219C38.949 31.5138 38.8926 31.4937 38.842 31.4629C38.7914 31.4321 38.7477 31.3912 38.7135 31.3429L32.7256 22.9178L27.3955 34.0516C27.3667 34.1117 27.3245 34.1643 27.2721 34.2054C27.2196 34.2464 27.1584 34.2748 27.0932 34.2883C27.028 34.3019 26.9606 34.3001 26.8961 34.2833C26.8317 34.2665 26.772 34.235 26.7217 34.1913L23.5676 31.4527L18.0325 41.3848H25.6519C25.7666 41.3848 25.8766 41.4304 25.9577 41.5115C26.0388 41.5926 26.0843 41.7026 26.0843 41.8172C26.0843 41.9319 26.0388 42.0419 25.9577 42.123C25.8766 42.2041 25.7666 42.2497 25.6519 42.2497H17.2973C17.2219 42.2497 17.1478 42.2301 17.0824 42.1926C17.017 42.1552 16.9624 42.1013 16.9243 42.0364C16.8861 41.9714 16.8655 41.8975 16.8647 41.8222C16.8638 41.7468 16.8827 41.6725 16.9194 41.6066L23.0729 30.5666C23.1042 30.5104 23.1477 30.4619 23.2001 30.4246C23.2526 30.3873 23.3127 30.3622 23.3761 30.3511C23.4395 30.34 23.5046 30.3432 23.5666 30.3604C23.6286 30.3776 23.6859 30.4085 23.7345 30.4508L26.8606 33.166L32.2629 21.8817C32.2954 21.8138 32.3451 21.7555 32.407 21.7127C32.4689 21.6699 32.5409 21.6439 32.6159 21.6375C32.6909 21.631 32.7663 21.6442 32.8346 21.6758C32.9029 21.7074 32.9618 21.7563 33.0054 21.8177L39.1507 30.4663L41.5905 28.475C41.6438 28.4315 41.7066 28.4014 41.7739 28.3871C41.8411 28.3729 41.9107 28.3748 41.9771 28.3928C42.0434 28.4108 42.1045 28.4444 42.1552 28.4907C42.206 28.537 42.245 28.5948 42.269 28.6592L47.1079 41.6672C47.1321 41.7325 47.1401 41.8028 47.1313 41.8719C47.1225 41.941 47.0971 42.007 47.0573 42.0642C47.0175 42.1214 46.9645 42.1681 46.9028 42.2004C46.841 42.2327 46.7724 42.2496 46.7027 42.2497Z" fill="#FAFBFC"/>
<path d="M29.933 42.2498H28.679C28.5643 42.2498 28.4543 42.2042 28.3732 42.1231C28.2921 42.042 28.2465 41.932 28.2465 41.8173C28.2465 41.7026 28.2921 41.5926 28.3732 41.5115C28.4543 41.4304 28.5643 41.3849 28.679 41.3849H29.933C30.0477 41.3849 30.1577 41.4304 30.2388 41.5115C30.3199 41.5926 30.3654 41.7026 30.3654 41.8173C30.3654 41.932 30.3199 42.042 30.2388 42.1231C30.1577 42.2042 30.0477 42.2498 29.933 42.2498Z" fill="#FAFBFC"/>
<path d="M29.5425 28.9957C29.4394 28.9958 29.3397 28.9592 29.2613 28.8924C29.1829 28.8256 29.1309 28.733 29.1146 28.6313C29.0984 28.5296 29.1191 28.4254 29.1728 28.3375C29.2266 28.2496 29.31 28.1838 29.408 28.152L32.6261 27.0973C32.8814 27.0138 33.1584 27.027 33.4045 27.1345L34.2893 27.5206C34.3297 27.5384 34.3743 27.5442 34.4179 27.5374C34.4616 27.5306 34.5023 27.5114 34.5353 27.4821L35.7029 26.4478C35.7455 26.4101 35.7951 26.3813 35.8488 26.3628C35.9026 26.3444 35.9594 26.3367 36.0161 26.3402C36.0729 26.3437 36.1283 26.3583 36.1794 26.3833C36.2305 26.4083 36.2761 26.443 36.3137 26.4856C36.3513 26.5282 36.3802 26.5778 36.3987 26.6315C36.4171 26.6853 36.4248 26.7421 36.4213 26.7988C36.4178 26.8556 36.4031 26.911 36.3782 26.9621C36.3532 27.0132 36.3185 27.0588 36.2759 27.0964L35.1083 28.1308C34.9515 28.2688 34.7586 28.3593 34.5522 28.3917C34.3459 28.4242 34.1345 28.3973 33.9429 28.3141L33.0586 27.928C33.0064 27.9049 32.9475 27.9021 32.8934 27.9202L29.6752 28.9758C29.6323 28.9893 29.5875 28.996 29.5425 28.9957Z" fill="#FAFBFC"/>
<path d="M32.653 22.5022C32.5383 22.5022 32.4283 22.4566 32.3472 22.3755C32.2661 22.2944 32.2205 22.1845 32.2205 22.0698V16.1813C32.2205 16.0666 32.2661 15.9567 32.3472 15.8756C32.4283 15.7945 32.5383 15.7489 32.653 15.7489C32.7676 15.7489 32.8776 15.7945 32.9587 15.8756C33.0398 15.9567 33.0854 16.0666 33.0854 16.1813V22.0698C33.0854 22.1845 33.0398 22.2944 32.9587 22.3755C32.8776 22.4566 32.7676 22.5022 32.653 22.5022Z" fill="#FAFBFC"/>
<path d="M36.6997 19.6187H32.653C32.5383 19.6187 32.4283 19.5732 32.3472 19.4921C32.2661 19.411 32.2205 19.301 32.2205 19.1863V16.6254C32.2205 16.5107 32.2661 16.4007 32.3472 16.3196C32.4283 16.2386 32.5383 16.193 32.653 16.193H36.6997C36.8144 16.193 36.9243 16.2386 37.0054 16.3196C37.0865 16.4007 37.1321 16.5107 37.1321 16.6254V19.1863C37.1321 19.301 37.0865 19.411 37.0054 19.4921C36.9243 19.5732 36.8144 19.6187 36.6997 19.6187ZM33.0854 18.7539H36.2672V17.0579H33.0854V18.7539Z" fill="#FAFBFC"/>
</svg>
