<svg width="64" height="64" viewBox="0 0 64 64" fill="none" xmlns="http://www.w3.org/2000/svg">
<circle cx="32" cy="32" r="32" fill="#0052CC"/>
<path d="M32.947 47.1436H31.6627C31.548 47.1436 31.438 47.098 31.3569 47.0169C31.2758 46.9358 31.2303 46.8258 31.2303 46.7111C31.2303 46.5964 31.2758 46.4864 31.3569 46.4053C31.438 46.3242 31.548 46.2787 31.6627 46.2787H32.947C33.0617 46.2787 33.1717 46.3242 33.2528 46.4053C33.3339 46.4864 33.3795 46.5964 33.3795 46.7111C33.3795 46.8258 33.3339 46.9358 33.2528 47.0169C33.1717 47.098 33.0617 47.1436 32.947 47.1436Z" fill="white"/>
<path d="M24.3546 47.144H18.6465C18.4034 47.1438 18.1704 47.0471 17.9985 46.8753C17.8266 46.7034 17.73 46.4703 17.7297 46.2273V22.1191C17.73 21.8761 17.8266 21.643 17.9985 21.4712C18.1704 21.2993 18.4034 21.2026 18.6465 21.2024H22.4778C22.5925 21.2024 22.7025 21.248 22.7836 21.329C22.8647 21.4101 22.9103 21.5201 22.9103 21.6348C22.9103 21.7495 22.8647 21.8595 22.7836 21.9406C22.7025 22.0217 22.5925 22.0673 22.4778 22.0673H18.6465C18.6397 22.0672 18.6329 22.0685 18.6266 22.0711C18.6202 22.0737 18.6145 22.0775 18.6097 22.0823C18.6048 22.0872 18.601 22.0929 18.5984 22.0992C18.5958 22.1055 18.5945 22.1123 18.5946 22.1191V46.2273C18.5945 46.2341 18.5958 46.2409 18.5984 46.2472C18.601 46.2535 18.6048 46.2593 18.6097 46.2641C18.6145 46.2689 18.6202 46.2727 18.6266 46.2753C18.6329 46.2779 18.6397 46.2792 18.6465 46.2791H24.3546C24.4693 46.2791 24.5793 46.3247 24.6604 46.4058C24.7415 46.4869 24.787 46.5969 24.787 46.7116C24.787 46.8263 24.7415 46.9363 24.6604 47.0174C24.5793 47.0985 24.4693 47.144 24.3546 47.144Z" fill="white"/>
<path d="M28.6357 47.1436H27.3816C27.267 47.1436 27.157 47.098 27.0759 47.0169C26.9948 46.9358 26.9492 46.8258 26.9492 46.7111C26.9492 46.5964 26.9948 46.4864 27.0759 46.4053C27.157 46.3242 27.267 46.2787 27.3816 46.2787H28.6357C28.7504 46.2787 28.8604 46.3242 28.9415 46.4053C29.0226 46.4864 29.0681 46.5964 29.0681 46.7111C29.0681 46.8258 29.0226 46.9358 28.9415 47.0169C28.8604 47.098 28.7504 47.1436 28.6357 47.1436Z" fill="white"/>
<path d="M37.5697 47.144H35.974C35.8594 47.144 35.7494 47.0985 35.6683 47.0174C35.5872 46.9363 35.5416 46.8263 35.5416 46.7116C35.5416 46.5969 35.5872 46.4869 35.6683 46.4058C35.7494 46.3247 35.8594 46.2791 35.974 46.2791H37.5697C37.5766 46.2792 37.5833 46.2779 37.5897 46.2753C37.596 46.2727 37.6017 46.2689 37.6065 46.2641C37.6114 46.2593 37.6152 46.2535 37.6178 46.2472C37.6204 46.2409 37.6217 46.2341 37.6216 46.2273V22.1191C37.6217 22.1123 37.6204 22.1055 37.6178 22.0992C37.6152 22.0929 37.6114 22.0872 37.6065 22.0823C37.6017 22.0775 37.596 22.0737 37.5897 22.0711C37.5833 22.0685 37.5766 22.0672 37.5697 22.0673H33.7384C33.6237 22.0673 33.5137 22.0217 33.4326 21.9406C33.3515 21.8595 33.3059 21.7495 33.3059 21.6348C33.3059 21.5201 33.3515 21.4101 33.4326 21.329C33.5137 21.248 33.6237 21.2024 33.7384 21.2024H37.5697C37.8128 21.2026 38.0458 21.2993 38.2177 21.4712C38.3896 21.643 38.4863 21.8761 38.4865 22.1191V46.2273C38.4863 46.4703 38.3896 46.7034 38.2177 46.8753C38.0458 47.0471 37.8128 47.1438 37.5697 47.144Z" fill="white"/>
<path d="M33.7384 23.3622H22.4779C22.3632 23.3622 22.2532 23.3167 22.1721 23.2356C22.091 23.1545 22.0454 23.0445 22.0454 22.9298V20.3568C22.0454 20.2421 22.091 20.1321 22.1721 20.051C22.2532 19.9699 22.3632 19.9244 22.4779 19.9244H24.8217C24.8805 19.0932 25.2521 18.3153 25.8618 17.7473C26.4714 17.1793 27.2736 16.8635 28.1068 16.8635C28.9401 16.8635 29.7423 17.1793 30.3519 17.7473C30.9616 18.3153 31.3332 19.0932 31.392 19.9244H33.7384C33.8531 19.9244 33.9631 19.9699 34.0442 20.051C34.1253 20.1321 34.1708 20.2421 34.1708 20.3568V22.9298C34.1708 23.0445 34.1253 23.1545 34.0442 23.2356C33.9631 23.3167 33.8531 23.3622 33.7384 23.3622ZM22.9103 22.4974H33.306V20.7892H30.9665C30.8518 20.7892 30.7418 20.7437 30.6607 20.6626C30.5796 20.5815 30.5341 20.4715 30.5341 20.3568V20.1536C30.5341 19.5096 30.2783 18.892 29.8229 18.4366C29.3676 17.9813 28.75 17.7255 28.106 17.7255C27.462 17.7255 26.8444 17.9813 26.389 18.4366C25.9337 18.892 25.6779 19.5096 25.6779 20.1536V20.3568C25.6779 20.4715 25.6323 20.5815 25.5512 20.6626C25.4701 20.7437 25.3601 20.7892 25.2454 20.7892H22.9103V22.4974Z" fill="white"/>
<path d="M35.4755 28.7643H26.8268C26.7121 28.7643 26.6021 28.7187 26.521 28.6376C26.4399 28.5565 26.3944 28.4465 26.3944 28.3318C26.3944 28.2172 26.4399 28.1072 26.521 28.0261C26.6021 27.945 26.7121 27.8994 26.8268 27.8994H35.4755C35.5902 27.8994 35.7002 27.945 35.7812 28.0261C35.8623 28.1072 35.9079 28.2172 35.9079 28.3318C35.9079 28.4465 35.8623 28.5565 35.7812 28.6376C35.7002 28.7187 35.5902 28.7643 35.4755 28.7643Z" fill="white"/>
<path d="M35.4755 33.3062H26.8268C26.7121 33.3062 26.6021 33.2606 26.521 33.1795C26.4399 33.0984 26.3944 32.9884 26.3944 32.8737C26.3944 32.759 26.4399 32.649 26.521 32.5679C26.6021 32.4868 26.7121 32.4413 26.8268 32.4413H35.4755C35.5902 32.4413 35.7002 32.4868 35.7812 32.5679C35.8623 32.649 35.9079 32.759 35.9079 32.8737C35.9079 32.9884 35.8623 33.0984 35.7812 33.1795C35.7002 33.2606 35.5902 33.3062 35.4755 33.3062Z" fill="white"/>
<path d="M35.4755 37.8474H26.8268C26.7121 37.8474 26.6021 37.8019 26.521 37.7208C26.4399 37.6397 26.3944 37.5297 26.3944 37.415C26.3944 37.3003 26.4399 37.1903 26.521 37.1092C26.6021 37.0281 26.7121 36.9825 26.8268 36.9825H35.4755C35.5902 36.9825 35.7002 37.0281 35.7812 37.1092C35.8623 37.1903 35.9079 37.3003 35.9079 37.415C35.9079 37.5297 35.8623 37.6397 35.7812 37.7208C35.7002 37.8019 35.5902 37.8474 35.4755 37.8474Z" fill="white"/>
<path d="M35.4755 42.3892H26.8268C26.7121 42.3892 26.6021 42.3437 26.521 42.2626C26.4399 42.1815 26.3944 42.0715 26.3944 41.9568C26.3944 41.8421 26.4399 41.7321 26.521 41.651C26.6021 41.5699 26.7121 41.5244 26.8268 41.5244H35.4755C35.5902 41.5244 35.7002 41.5699 35.7812 41.651C35.8623 41.7321 35.9079 41.8421 35.9079 41.9568C35.9079 42.0715 35.8623 42.1815 35.7812 42.2626C35.7002 42.3437 35.5902 42.3892 35.4755 42.3892Z" fill="white"/>
<path d="M21.674 29.9724C21.5593 29.9723 21.4493 29.9268 21.3682 29.8457L20.4351 28.9125C20.3938 28.8726 20.3608 28.8249 20.3381 28.7721C20.3155 28.7193 20.3036 28.6626 20.3031 28.6052C20.3026 28.5478 20.3135 28.4908 20.3352 28.4377C20.357 28.3845 20.3891 28.3362 20.4297 28.2956C20.4703 28.255 20.5186 28.2229 20.5717 28.2012C20.6249 28.1794 20.6818 28.1685 20.7392 28.169C20.7966 28.1695 20.8534 28.1814 20.9061 28.2041C20.9589 28.2268 21.0066 28.2597 21.0465 28.301L21.674 28.928L23.8015 26.8009C23.8831 26.7221 23.9923 26.6785 24.1057 26.6795C24.2191 26.6805 24.3276 26.726 24.4077 26.8062C24.4879 26.8863 24.5334 26.9948 24.5344 27.1082C24.5354 27.2216 24.4918 27.3308 24.413 27.4124L21.9797 29.8457C21.8986 29.9268 21.7887 29.9723 21.674 29.9724Z" fill="white"/>
<path d="M21.6739 34.6636C21.5593 34.6636 21.4493 34.618 21.3682 34.5369L20.435 33.6037C20.3623 33.5211 20.3238 33.4139 20.3274 33.3039C20.331 33.1939 20.3764 33.0894 20.4544 33.0117C20.5324 32.934 20.637 32.889 20.747 32.8858C20.857 32.8826 20.9641 32.9214 21.0465 32.9944L21.6739 33.6219L23.8015 31.4943C23.8831 31.4155 23.9923 31.372 24.1057 31.3729C24.2191 31.3739 24.3275 31.4194 24.4077 31.4996C24.4879 31.5798 24.5334 31.6882 24.5343 31.8016C24.5353 31.915 24.4917 32.0242 24.413 32.1058L21.9797 34.5391C21.8982 34.6194 21.7883 34.6641 21.6739 34.6636Z" fill="white"/>
<path d="M21.674 38.923C21.6172 38.9232 21.5609 38.912 21.5084 38.8903C21.4559 38.8685 21.4083 38.8366 21.3682 38.7963L20.435 37.8631C20.3563 37.7816 20.3127 37.6723 20.3137 37.5589C20.3147 37.4456 20.3601 37.3371 20.4403 37.2569C20.5205 37.1767 20.629 37.1313 20.7423 37.1303C20.8557 37.1293 20.9649 37.1729 21.0465 37.2517L21.674 37.8813L23.8015 35.7537C23.8831 35.6749 23.9923 35.6314 24.1057 35.6323C24.2191 35.6333 24.3275 35.6788 24.4077 35.759C24.4879 35.8392 24.5334 35.9476 24.5344 36.061C24.5353 36.1744 24.4918 36.2836 24.413 36.3652L21.9797 38.7985C21.9395 38.8384 21.8917 38.8699 21.8393 38.8913C21.7868 38.9127 21.7306 38.9234 21.674 38.923Z" fill="white"/>
<path d="M21.674 43.6141C21.6172 43.6142 21.5609 43.6031 21.5084 43.5814C21.4559 43.5596 21.4083 43.5277 21.3682 43.4874L20.435 42.5546C20.3563 42.4731 20.3127 42.3638 20.3137 42.2504C20.3147 42.1371 20.3601 42.0286 20.4403 41.9484C20.5205 41.8682 20.629 41.8228 20.7423 41.8218C20.8557 41.8208 20.9649 41.8644 21.0465 41.9432L21.674 42.5702L23.8015 40.443C23.8831 40.3643 23.9923 40.3207 24.1057 40.3217C24.2191 40.3227 24.3275 40.3681 24.4077 40.4483C24.4879 40.5285 24.5334 40.6369 24.5344 40.7503C24.5353 40.8637 24.4918 40.9729 24.413 41.0545L21.9797 43.4874C21.9396 43.5277 21.892 43.5596 21.8395 43.5814C21.787 43.6031 21.7308 43.6142 21.674 43.6141Z" fill="white"/>
<path d="M45.8379 42.4176H41.063C40.9483 42.4176 40.8383 42.3721 40.7572 42.291C40.6761 42.2099 40.6305 42.0999 40.6305 41.9852V26.4825C40.6308 26.2275 40.7322 25.983 40.9125 25.8027C41.0928 25.6224 41.3373 25.521 41.5923 25.5208H45.3086C45.5636 25.521 45.8081 25.6224 45.9884 25.8027C46.1687 25.983 46.2701 26.2275 46.2703 26.4825V41.9852C46.2703 42.0999 46.2247 42.2099 46.1437 42.291C46.0626 42.3721 45.9526 42.4176 45.8379 42.4176ZM41.4954 41.5528H45.4054V26.4825C45.4054 26.4568 45.3952 26.4322 45.3771 26.414C45.3589 26.3958 45.3343 26.3856 45.3086 26.3856H41.5923C41.5666 26.3856 41.5419 26.3958 41.5238 26.414C41.5056 26.4322 41.4954 26.4568 41.4954 26.4825V41.5528Z" fill="white"/>
<path d="M43.4504 47.1461C43.3705 47.146 43.2921 47.1238 43.224 47.0819C43.1559 47.04 43.1007 46.98 43.0647 46.9086L40.6768 42.1804C40.6435 42.1145 40.6276 42.0411 40.6307 41.9673C40.6338 41.8935 40.6557 41.8217 40.6945 41.7588C40.7332 41.6958 40.7874 41.6439 40.8519 41.6079C40.9164 41.5718 40.9891 41.5529 41.063 41.553H45.8379C45.9118 41.5529 45.9844 41.5718 46.0489 41.6079C46.1134 41.6439 46.1676 41.6958 46.2064 41.7588C46.2451 41.8217 46.267 41.8935 46.2701 41.9673C46.2732 42.0411 46.2574 42.1145 46.224 42.1804L43.8366 46.9086C43.8005 46.9801 43.7453 47.0401 43.6771 47.082C43.6089 47.1239 43.5304 47.1461 43.4504 47.1461ZM41.7639 42.4178L43.4504 45.7545L45.1369 42.4178H41.7639Z" fill="white"/>
<path d="M45.8379 30.8003H41.063C40.9483 30.8003 40.8383 30.7547 40.7572 30.6736C40.6761 30.5925 40.6305 30.4825 40.6305 30.3679C40.6305 30.2532 40.6761 30.1432 40.7572 30.0621C40.8383 29.981 40.9483 29.9354 41.063 29.9354H45.8379C45.9526 29.9354 46.0626 29.981 46.1437 30.0621C46.2247 30.1432 46.2703 30.2532 46.2703 30.3679C46.2703 30.4825 46.2247 30.5925 46.1437 30.6736C46.0626 30.7547 45.9526 30.8003 45.8379 30.8003Z" fill="white"/>
<path d="M43.4504 42.4176C43.3357 42.4176 43.2257 42.372 43.1446 42.2909C43.0635 42.2098 43.018 42.0998 43.018 41.9851V30.3679C43.018 30.2532 43.0635 30.1432 43.1446 30.0621C43.2257 29.981 43.3357 29.9354 43.4504 29.9354C43.5651 29.9354 43.6751 29.981 43.7562 30.0621C43.8373 30.1432 43.8829 30.2532 43.8829 30.3679V41.9851C43.8829 42.0998 43.8373 42.2098 43.7562 42.2909C43.6751 42.372 43.5651 42.4176 43.4504 42.4176Z" fill="white"/>
</svg>
