<svg width="129" height="129" viewBox="0 0 129 129" fill="none" xmlns="http://www.w3.org/2000/svg">
<rect width="128" height="128" transform="translate(0.5 0.527466)" fill="white" fill-opacity="0.01"/>
<path d="M64.5 107.194C75.8159 107.194 86.6684 102.699 94.6699 94.6973C102.671 86.6958 107.167 75.8433 107.167 64.5274C107.167 53.2115 102.671 42.3591 94.6699 34.3575C86.6684 26.356 75.8159 21.8608 64.5 21.8608C53.1841 21.8608 42.3317 26.356 34.3301 34.3575C26.3286 42.3591 21.8334 53.2115 21.8334 64.5274C21.8334 75.8433 26.3286 86.6958 34.3301 94.6973C42.3317 102.699 53.1841 107.194 64.5 107.194ZM64.5 117.861C35.044 117.861 11.1667 93.9834 11.1667 64.5274C11.1667 35.0714 35.044 11.1941 64.5 11.1941C93.956 11.1941 117.833 35.0714 117.833 64.5274C117.833 93.9834 93.956 117.861 64.5 117.861Z" fill="#36B27E"/>
<path fill-rule="evenodd" clip-rule="evenodd" d="M52.2707 60.7568C51.7787 60.2474 51.1902 59.8411 50.5395 59.5615C49.8888 59.282 49.189 59.1349 48.4808 59.1288C47.7727 59.1226 47.0704 59.2575 46.4149 59.5257C45.7595 59.7939 45.164 60.1899 44.6632 60.6907C44.1625 61.1914 43.7665 61.7869 43.4983 62.4423C43.2301 63.0978 43.0952 63.8001 43.1014 64.5082C43.1075 65.2164 43.2546 65.9162 43.5341 66.5669C43.8137 67.2176 44.22 67.8061 44.7294 68.2981L55.396 78.9648C56.3962 79.9646 57.7525 80.5263 59.1667 80.5263C60.5809 80.5263 61.9372 79.9646 62.9374 78.9648L84.2707 57.6314C84.7801 57.1394 85.1864 56.5509 85.4659 55.9002C85.7454 55.2496 85.8925 54.5497 85.8987 53.8416C85.9048 53.1334 85.7699 52.4311 85.5017 51.7757C85.2336 51.1202 84.8376 50.5247 84.3368 50.024C83.836 49.5232 83.2406 49.1272 82.5851 48.859C81.9297 48.5909 81.2274 48.4559 80.5192 48.4621C79.8111 48.4682 79.1112 48.6154 78.4605 48.8949C77.8098 49.1744 77.2213 49.5807 76.7294 50.0901L59.1667 67.6528L52.2707 60.7568Z" fill="#36B27E"/>
</svg>
