<svg width="24" height="25" viewBox="0 0 24 25" fill="none" xmlns="http://www.w3.org/2000/svg">
<rect y="0.535156" width="24" height="24" rx="3" fill="#0052CC"/>
<g clip-path="url(#clip0_2500_436)">
<path d="M11.2342 13.0805C10.727 13.0807 10.2276 12.9555 9.78036 12.7162C9.33313 12.4768 8.95196 12.1307 8.6707 11.7086C8.38944 11.2865 8.2168 10.8014 8.16814 10.2965C8.11947 9.79162 8.19628 9.28252 8.39174 8.81445C8.41235 8.76478 8.45186 8.72533 8.50156 8.70478C8.55127 8.68423 8.6071 8.68427 8.65677 8.70489C8.70644 8.72551 8.74589 8.76501 8.76644 8.81472C8.78699 8.86442 8.78695 8.92025 8.76633 8.96993C8.61348 9.33523 8.54361 9.72992 8.56178 10.1255C8.57996 10.5211 8.68571 10.9077 8.87141 11.2575C9.05711 11.6072 9.31813 11.9114 9.63563 12.148C9.95314 12.3847 10.3192 12.5479 10.7075 12.626C11.0957 12.704 11.4964 12.6949 11.8807 12.5992C12.265 12.5036 12.6232 12.3239 12.9297 12.073C13.2361 11.8222 13.483 11.5064 13.6525 11.1486C13.8221 10.7907 13.9102 10.3997 13.9103 10.0037C13.9103 9.92121 13.9119 9.84155 13.9136 9.76047C13.916 9.63459 13.9186 9.51033 13.9136 9.3804C13.9127 9.35378 13.917 9.32724 13.9264 9.3023C13.9357 9.27736 13.9499 9.25451 13.9681 9.23505C13.9862 9.21558 14.0081 9.19989 14.0323 9.18887C14.0566 9.17785 14.0828 9.17171 14.1094 9.1708C14.136 9.1699 14.1625 9.17425 14.1875 9.1836C14.2124 9.19295 14.2353 9.20712 14.2547 9.2253C14.2742 9.24348 14.2899 9.26532 14.3009 9.28957C14.3119 9.31381 14.3181 9.34 14.319 9.36661C14.3238 9.50384 14.3212 9.6354 14.319 9.76857C14.3173 9.8458 14.3157 9.92364 14.3157 10.0035C14.3143 10.8199 13.989 11.6024 13.4113 12.1793C12.8336 12.7561 12.0506 13.0803 11.2342 13.0805Z" fill="white"/>
<path d="M10.1072 6.18223C10.0617 6.18246 10.0173 6.16732 9.98141 6.13926C9.94549 6.11119 9.92008 6.07184 9.90928 6.02756C9.89848 5.98328 9.90291 5.93665 9.92188 5.8952C9.94084 5.85375 9.97322 5.8199 10.0138 5.79912C10.2013 5.70228 10.3972 5.62244 10.599 5.56054C10.65 5.54653 10.7044 5.55299 10.7507 5.57856C10.797 5.60413 10.8315 5.64677 10.8467 5.69739C10.862 5.74802 10.8569 5.80261 10.8325 5.84952C10.8081 5.89643 10.7664 5.93196 10.7162 5.94851C10.538 6.00345 10.3651 6.07421 10.1995 6.15993C10.1709 6.1746 10.1393 6.18224 10.1072 6.18223Z" fill="white"/>
<path d="M14.1165 9.57593C14.0761 9.57589 14.0366 9.56378 14.0031 9.54113C13.9696 9.51848 13.9437 9.48634 13.9286 9.44883C13.9237 9.43708 13.4725 8.33032 12.8176 8.01593L12.772 8.05019C12.3619 8.35093 11.9222 8.60903 11.4597 8.82046C11.2725 8.90571 11.0808 8.98069 10.8854 9.04505C10.4104 9.21122 9.90869 9.28813 9.40568 9.27187C9.09708 9.25785 8.79282 9.19363 8.50487 9.08174C7.83048 8.81823 7.27102 8.28532 6.84271 7.50066C6.82332 7.46513 6.81501 7.42461 6.81885 7.38432C6.82269 7.34402 6.8385 7.3058 6.86425 7.27458C6.89001 7.24335 6.92452 7.22055 6.96334 7.20911C7.00217 7.19767 7.04353 7.19811 7.0821 7.21039C7.37582 7.27527 7.681 7.26679 7.97065 7.18569C8.26031 7.10458 8.52553 6.95336 8.74284 6.74539C8.76284 6.72711 8.78629 6.71303 8.81182 6.70397C8.83734 6.69491 8.86442 6.69106 8.89146 6.69265C8.9185 6.69423 8.94495 6.70122 8.96924 6.7132C8.99354 6.72518 9.01518 6.7419 9.03291 6.76239C9.05063 6.78287 9.06406 6.8067 9.07242 6.83246C9.08078 6.85823 9.08388 6.88541 9.08156 6.91239C9.07924 6.93938 9.07153 6.96563 9.05889 6.98958C9.04625 7.01354 9.02894 7.03472 9.00798 7.05187C8.57269 7.4488 8.00319 7.66609 7.41413 7.65998C7.71089 8.12617 8.14302 8.49055 8.65264 8.70431C8.89994 8.79983 9.16111 8.8546 9.42595 8.86647C9.87928 8.87985 10.3312 8.80969 10.7591 8.65951C10.9405 8.59959 11.1185 8.52983 11.2922 8.45052C11.7283 8.25038 12.1431 8.007 12.5305 7.72404C12.6128 7.66323 12.6599 7.62593 12.6611 7.62471C12.6878 7.60367 12.7193 7.58966 12.7528 7.584C12.7863 7.57833 12.8207 7.58118 12.8528 7.59228C13.4214 7.7885 13.8505 8.41627 14.0893 8.85309C14.35 8.04552 14.3486 7.44633 14.0812 7.1062C13.7326 6.66289 13.013 6.7616 13.0069 6.7616C12.9703 6.76696 12.9328 6.76224 12.8987 6.74796C12.8645 6.73368 12.8348 6.71037 12.8129 6.68052C12.6193 6.39453 12.3565 6.16213 12.0489 6.00492C12.0249 5.99347 12.0033 5.9774 11.9855 5.95763C11.9677 5.93785 11.9539 5.91476 11.945 5.88967C11.9361 5.86458 11.9322 5.83798 11.9336 5.81139C11.935 5.78481 11.9416 5.75875 11.953 5.73471C11.9645 5.71068 11.9806 5.68913 12.0003 5.6713C12.0201 5.65347 12.0432 5.63972 12.0683 5.63081C12.0934 5.62191 12.12 5.61804 12.1466 5.61941C12.1732 5.62079 12.1992 5.62739 12.2232 5.63883C12.558 5.80582 12.8486 6.04929 13.0718 6.34951C13.3466 6.33492 14.0054 6.35539 14.3987 6.85343C14.8158 7.38046 14.7838 8.2541 14.3046 9.44802C14.2895 9.48556 14.2635 9.51772 14.23 9.54037C14.1965 9.56302 14.157 9.57512 14.1165 9.57512V9.57593Z" fill="white"/>
<path d="M15.8486 14.8056C15.8068 14.8056 15.7661 14.7927 15.732 14.7685C15.6228 14.6918 15.5026 14.6321 15.3755 14.5913L12.4985 13.6589C12.4721 13.6517 12.4473 13.6392 12.4258 13.6221C12.4043 13.6051 12.3865 13.5839 12.3734 13.5597C12.3604 13.5356 12.3524 13.509 12.3499 13.4817C12.3474 13.4544 12.3505 13.4268 12.359 13.4007C12.3674 13.3746 12.3811 13.3505 12.3992 13.3299C12.4173 13.3092 12.4393 13.2924 12.4641 13.2806C12.4888 13.2687 12.5157 13.262 12.5431 13.2608C12.5706 13.2596 12.5979 13.2641 12.6236 13.2738L15.5006 14.2062C15.6663 14.2596 15.8231 14.3376 15.9656 14.4377C16.0008 14.4625 16.0273 14.4979 16.041 14.5387C16.0548 14.5796 16.0552 14.6237 16.0422 14.6648C16.0291 14.7059 16.0033 14.7418 15.9685 14.7672C15.9337 14.7926 15.8917 14.8063 15.8486 14.8062V14.8056Z" fill="white"/>
<path d="M14.0859 18.8683H5.74268C5.68892 18.8683 5.63737 18.8469 5.59935 18.8089C5.56134 18.7709 5.53998 18.7194 5.53998 18.6656V15.9038C5.53927 15.526 5.65867 15.1579 5.88094 14.8524C6.1032 14.547 6.41682 14.3202 6.77647 14.2047L9.65302 13.2723C9.67868 13.2626 9.70605 13.2581 9.73347 13.2593C9.76089 13.2605 9.78778 13.2672 9.81253 13.2791C9.83727 13.2909 9.85935 13.3077 9.87742 13.3284C9.89548 13.349 9.90917 13.3731 9.91765 13.3992C9.92612 13.4253 9.92921 13.4529 9.92672 13.4802C9.92424 13.5075 9.91623 13.5341 9.90318 13.5582C9.89013 13.5824 9.87231 13.6036 9.85081 13.6206C9.82931 13.6377 9.80457 13.6502 9.77809 13.6574L6.90154 14.5898C6.62336 14.6791 6.38079 14.8545 6.2089 15.0907C6.03701 15.3269 5.94472 15.6116 5.94539 15.9038V18.4629H14.0859C14.1397 18.4629 14.1912 18.4842 14.2293 18.5223C14.2673 18.5603 14.2886 18.6118 14.2886 18.6656C14.2886 18.7194 14.2673 18.7709 14.2293 18.8089C14.1912 18.8469 14.1397 18.8683 14.0859 18.8683Z" fill="white"/>
<path d="M8.2154 18.868H16.5586C16.6124 18.868 16.664 18.8466 16.702 18.8086C16.74 18.7706 16.7613 18.719 16.7613 18.6653V15.9034C16.7621 15.5257 16.6427 15.1575 16.4204 14.8521C16.1981 14.5467 15.8845 14.3199 15.5249 14.2044L12.6483 13.2719C12.6226 13.2622 12.5953 13.2578 12.5679 13.259C12.5404 13.2601 12.5135 13.2669 12.4888 13.2787C12.4641 13.2906 12.442 13.3074 12.4239 13.328C12.4058 13.3487 12.3922 13.3728 12.3837 13.3989C12.3752 13.425 12.3721 13.4525 12.3746 13.4799C12.3771 13.5072 12.3851 13.5337 12.3982 13.5579C12.4112 13.582 12.429 13.6033 12.4505 13.6203C12.472 13.6374 12.4968 13.6499 12.5232 13.6571L15.3998 14.5895C15.678 14.6787 15.9205 14.8541 16.0924 15.0903C16.2643 15.3265 16.3566 15.6113 16.3559 15.9034V18.4626H8.2154C8.16164 18.4626 8.11009 18.4839 8.07207 18.5219C8.03406 18.5599 8.0127 18.6115 8.0127 18.6653C8.0127 18.719 8.03406 18.7706 8.07207 18.8086C8.11009 18.8466 8.16164 18.868 8.2154 18.868Z" fill="white"/>
<path d="M12.3137 16.1415C12.2856 16.1415 12.2579 16.1357 12.2322 16.1243C12.2065 16.113 12.1835 16.0965 12.1645 16.0759L10.9546 14.7583C10.9357 14.7378 10.9213 14.7136 10.9122 14.6873C10.9031 14.6609 10.8996 14.633 10.9017 14.6052C10.9039 14.5775 10.9118 14.5504 10.9249 14.5259C10.938 14.5013 10.956 14.4796 10.9779 14.4623L12.4349 13.3069C12.4556 13.2893 12.4797 13.2759 12.5056 13.2678C12.5316 13.2596 12.559 13.2568 12.5861 13.2594C12.6132 13.262 12.6395 13.2701 12.6634 13.2831C12.6873 13.2962 12.7083 13.3139 12.7252 13.3352C12.7422 13.3565 12.7546 13.3811 12.7618 13.4073C12.7691 13.4336 12.771 13.461 12.7673 13.488C12.7637 13.515 12.7547 13.5409 12.7409 13.5644C12.727 13.5878 12.7086 13.6082 12.6866 13.6244L11.4005 14.645L12.2772 15.5989L13.3848 13.7056C13.4119 13.6592 13.4564 13.6255 13.5084 13.6119C13.5604 13.5982 13.6157 13.6058 13.6622 13.633C13.7086 13.6601 13.7423 13.7046 13.7559 13.7566C13.7696 13.8086 13.762 13.864 13.7348 13.9104L12.4886 16.0418C12.4726 16.0692 12.4504 16.0925 12.4237 16.1097C12.3971 16.127 12.3667 16.1377 12.3352 16.1411C12.328 16.1417 12.3208 16.1418 12.3137 16.1415Z" fill="white"/>
<path d="M9.89326 16.1417C9.88546 16.1417 9.87768 16.1412 9.86995 16.1403C9.83823 16.1366 9.80781 16.1256 9.78118 16.108C9.75455 16.0903 9.73246 16.0667 9.7167 16.0389L8.52076 13.9154C8.50682 13.8922 8.49767 13.8664 8.49386 13.8396C8.49006 13.8128 8.49167 13.7854 8.49859 13.7592C8.50552 13.7331 8.51763 13.7085 8.53421 13.6871C8.55078 13.6657 8.57148 13.6478 8.59509 13.6345C8.6187 13.6212 8.64473 13.6128 8.67165 13.6097C8.69857 13.6066 8.72583 13.609 8.75181 13.6166C8.7778 13.6243 8.80199 13.6371 8.82296 13.6542C8.84392 13.6714 8.86123 13.6926 8.87387 13.7166L9.93238 15.596L10.8095 14.6417L9.58515 13.6219C9.56405 13.6051 9.54652 13.5842 9.53359 13.5606C9.52065 13.5369 9.51258 13.5109 9.50983 13.484C9.50709 13.4572 9.50973 13.4301 9.5176 13.4042C9.52547 13.3784 9.53841 13.3545 9.55567 13.3337C9.57293 13.313 9.59415 13.2959 9.6181 13.2835C9.64204 13.271 9.66823 13.2635 9.69512 13.2613C9.72202 13.2592 9.74907 13.2624 9.77471 13.2708C9.80034 13.2792 9.82404 13.2927 9.84441 13.3103L11.2325 14.4658C11.2537 14.4833 11.271 14.5049 11.2836 14.5293C11.2961 14.5538 11.3035 14.5805 11.3054 14.6079C11.3073 14.6353 11.3036 14.6627 11.2946 14.6887C11.2855 14.7146 11.2713 14.7384 11.2528 14.7587L10.0429 16.0762C10.0238 16.0969 10.0007 16.1134 9.97494 16.1247C9.94919 16.136 9.92137 16.1418 9.89326 16.1417Z" fill="white"/>
<path d="M15.7906 18.8681H8.27343C8.2043 18.8681 8.13799 18.8467 8.08911 18.8087C8.04022 18.7707 8.01276 18.7191 8.01276 18.6654V17.3291C8.01276 17.2754 8.04022 17.2238 8.08911 17.1858C8.13799 17.1478 8.2043 17.1264 8.27343 17.1264C8.34257 17.1264 8.40888 17.1478 8.45776 17.1858C8.50665 17.2238 8.53411 17.2754 8.53411 17.3291V18.4626H15.7906C15.8598 18.4626 15.9261 18.484 15.9749 18.522C16.0238 18.56 16.0513 18.6116 16.0513 18.6654C16.0513 18.7191 16.0238 18.7707 15.9749 18.8087C15.9261 18.8467 15.8598 18.8681 15.7906 18.8681Z" fill="white"/>
<path d="M6.71945 18.8683H14.2366C14.3058 18.8683 14.3721 18.8469 14.421 18.8089C14.4699 18.7709 14.4973 18.7194 14.4973 18.6656V17.3294C14.4973 17.2756 14.4699 17.2241 14.421 17.186C14.3721 17.148 14.3058 17.1267 14.2366 17.1267C14.1675 17.1267 14.1012 17.148 14.0523 17.186C14.0034 17.2241 13.976 17.2756 13.976 17.3294V18.4629H6.71945C6.65031 18.4629 6.58401 18.4843 6.53512 18.5223C6.48623 18.5603 6.45877 18.6118 6.45877 18.6656C6.45877 18.7194 6.48623 18.7709 6.53512 18.8089C6.58401 18.8469 6.65031 18.8683 6.71945 18.8683Z" fill="white"/>
<path d="M12.5596 13.6688C12.5058 13.6688 12.4543 13.6474 12.4162 13.6094C12.3782 13.5714 12.3569 13.5198 12.3569 13.4661V12.5551C12.3569 12.5014 12.3782 12.4498 12.4162 12.4118C12.4543 12.3738 12.5058 12.3524 12.5596 12.3524C12.6133 12.3524 12.6649 12.3738 12.7029 12.4118C12.7409 12.4498 12.7623 12.5014 12.7623 12.5551V13.4673C12.762 13.5208 12.7405 13.5721 12.7025 13.6098C12.6645 13.6476 12.6131 13.6688 12.5596 13.6688Z" fill="white"/>
<path d="M9.71543 13.6693C9.66167 13.6693 9.61011 13.648 9.5721 13.6099C9.53408 13.5719 9.51273 13.5204 9.51273 13.4666V12.4444C9.51273 12.3906 9.53408 12.3391 9.5721 12.3011C9.61011 12.263 9.66167 12.2417 9.71543 12.2417C9.76919 12.2417 9.82075 12.263 9.85876 12.3011C9.89677 12.3391 9.91813 12.3906 9.91813 12.4444V13.4666C9.91813 13.5204 9.89677 13.5719 9.85876 13.6099C9.82075 13.648 9.76919 13.6693 9.71543 13.6693Z" fill="white"/>
</g>
<defs>
<clipPath id="clip0_2500_436">
<rect width="15" height="15" fill="white" transform="translate(4.5 5.03516)"/>
</clipPath>
</defs>
</svg>
