<svg width="26" height="27" viewBox="0 0 26 27" fill="none" xmlns="http://www.w3.org/2000/svg">
<g filter="url(#filter0_d_2500_418)">
<rect x="1" y="0.535156" width="24" height="24" rx="3" fill="#5243AA"/>
</g>
<g clip-path="url(#clip0_2500_418)">
<path d="M12.2342 13.0805C11.727 13.0807 11.2276 12.9555 10.7804 12.7162C10.3331 12.4768 9.95196 12.1307 9.6707 11.7086C9.38944 11.2865 9.2168 10.8014 9.16814 10.2965C9.11947 9.79162 9.19628 9.28252 9.39174 8.81445C9.41235 8.76478 9.45186 8.72533 9.50156 8.70478C9.55127 8.68423 9.6071 8.68427 9.65677 8.70489C9.70644 8.72551 9.74589 8.76501 9.76644 8.81472C9.78699 8.86442 9.78695 8.92025 9.76633 8.96993C9.61348 9.33523 9.54361 9.72992 9.56178 10.1255C9.57996 10.5211 9.68571 10.9077 9.87141 11.2575C10.0571 11.6072 10.3181 11.9114 10.6356 12.148C10.9531 12.3847 11.3192 12.5479 11.7075 12.626C12.0957 12.704 12.4964 12.6949 12.8807 12.5992C13.265 12.5036 13.6232 12.3239 13.9297 12.073C14.2361 11.8222 14.483 11.5064 14.6525 11.1486C14.8221 10.7907 14.9102 10.3997 14.9103 10.0037C14.9103 9.92121 14.9119 9.84155 14.9136 9.76047C14.916 9.63459 14.9186 9.51033 14.9136 9.3804C14.9127 9.35378 14.917 9.32724 14.9264 9.3023C14.9357 9.27736 14.9499 9.25451 14.9681 9.23505C14.9862 9.21558 15.0081 9.19989 15.0323 9.18887C15.0566 9.17785 15.0828 9.17171 15.1094 9.1708C15.136 9.1699 15.1625 9.17425 15.1875 9.1836C15.2124 9.19295 15.2353 9.20712 15.2547 9.2253C15.2742 9.24348 15.2899 9.26532 15.3009 9.28957C15.3119 9.31381 15.3181 9.34 15.319 9.36661C15.3238 9.50384 15.3212 9.6354 15.319 9.76857C15.3173 9.8458 15.3157 9.92364 15.3157 10.0035C15.3143 10.8199 14.989 11.6024 14.4113 12.1793C13.8336 12.7561 13.0506 13.0803 12.2342 13.0805Z" fill="white"/>
<path d="M11.1072 6.18223C11.0617 6.18246 11.0173 6.16732 10.9814 6.13926C10.9455 6.11119 10.9201 6.07184 10.9093 6.02756C10.8985 5.98328 10.9029 5.93665 10.9219 5.8952C10.9408 5.85375 10.9732 5.8199 11.0138 5.79912C11.2013 5.70228 11.3972 5.62244 11.599 5.56054C11.65 5.54653 11.7044 5.55299 11.7507 5.57856C11.797 5.60413 11.8315 5.64677 11.8467 5.69739C11.862 5.74802 11.8569 5.80261 11.8325 5.84952C11.8081 5.89643 11.7664 5.93196 11.7162 5.94851C11.538 6.00345 11.3651 6.07421 11.1995 6.15993C11.1709 6.1746 11.1393 6.18224 11.1072 6.18223Z" fill="white"/>
<path d="M15.1165 9.57592C15.0761 9.57589 15.0366 9.56377 15.0031 9.54112C14.9696 9.51848 14.9437 9.48634 14.9286 9.44883C14.9237 9.43707 14.4725 8.33032 13.8176 8.01592L13.772 8.05018C13.3619 8.35093 12.9222 8.60902 12.4597 8.82045C12.2725 8.90571 12.0808 8.98069 11.8854 9.04505C11.4104 9.21122 10.9087 9.28812 10.4057 9.27187C10.0971 9.25784 9.79282 9.19362 9.50487 9.08174C8.83048 8.81822 8.27102 8.28532 7.84271 7.50065C7.82332 7.46513 7.81501 7.42461 7.81885 7.38431C7.82269 7.34402 7.8385 7.3058 7.86425 7.27457C7.89001 7.24335 7.92452 7.22054 7.96334 7.20911C8.00217 7.19767 8.04353 7.19811 8.0821 7.21038C8.37582 7.27527 8.681 7.26678 8.97065 7.18568C9.26031 7.10458 9.52553 6.95336 9.74284 6.74538C9.76284 6.72711 9.78629 6.71303 9.81182 6.70397C9.83734 6.69491 9.86442 6.69106 9.89146 6.69264C9.9185 6.69423 9.94495 6.70122 9.96924 6.7132C9.99354 6.72517 10.0152 6.7419 10.0329 6.76238C10.0506 6.78287 10.0641 6.8067 10.0724 6.83246C10.0808 6.85823 10.0839 6.8854 10.0816 6.91239C10.0792 6.93938 10.0715 6.96562 10.0589 6.98958C10.0463 7.01354 10.0289 7.03472 10.008 7.05187C9.57269 7.4488 9.00319 7.66608 8.41413 7.65998C8.71089 8.12617 9.14302 8.49055 9.65264 8.7043C9.89994 8.79983 10.1611 8.85459 10.426 8.86647C10.8793 8.87984 11.3312 8.80969 11.7591 8.65951C11.9405 8.59959 12.1185 8.52982 12.2922 8.45052C12.7283 8.25037 13.1431 8.00699 13.5305 7.72403C13.6128 7.66322 13.6599 7.62592 13.6611 7.62471C13.6878 7.60366 13.7193 7.58966 13.7528 7.58399C13.7863 7.57833 13.8207 7.58117 13.8528 7.59228C14.4214 7.78849 14.8505 8.41626 15.0893 8.85309C15.35 8.04552 15.3486 7.44633 15.0812 7.10619C14.7326 6.66288 14.013 6.7616 14.0069 6.7616C13.9703 6.76696 13.9328 6.76224 13.8987 6.74796C13.8645 6.73367 13.8348 6.71036 13.8129 6.68052C13.6193 6.39453 13.3565 6.16213 13.0489 6.00491C13.0249 5.99347 13.0033 5.9774 12.9855 5.95762C12.9677 5.93785 12.9539 5.91476 12.945 5.88967C12.9361 5.86458 12.9322 5.83798 12.9336 5.81139C12.935 5.7848 12.9416 5.75875 12.953 5.73471C12.9645 5.71067 12.9806 5.68912 13.0003 5.6713C13.0201 5.65347 13.0432 5.63971 13.0683 5.63081C13.0934 5.62191 13.12 5.61803 13.1466 5.61941C13.1732 5.62078 13.1992 5.62738 13.2232 5.63883C13.558 5.80582 13.8486 6.04928 14.0718 6.34951C14.3466 6.33491 15.0054 6.35538 15.3987 6.85342C15.8158 7.38045 15.7838 8.2541 15.3046 9.44802C15.2895 9.48556 15.2635 9.51772 15.23 9.54037C15.1965 9.56302 15.157 9.57512 15.1165 9.57511V9.57592Z" fill="white"/>
<path d="M16.8486 14.8056C16.8068 14.8056 16.7661 14.7927 16.732 14.7685C16.6228 14.6918 16.5026 14.6321 16.3755 14.5913L13.4985 13.6589C13.4721 13.6517 13.4473 13.6392 13.4258 13.6221C13.4043 13.6051 13.3865 13.5839 13.3734 13.5597C13.3604 13.5356 13.3524 13.509 13.3499 13.4817C13.3474 13.4544 13.3505 13.4268 13.359 13.4007C13.3674 13.3746 13.3811 13.3505 13.3992 13.3299C13.4173 13.3092 13.4393 13.2924 13.4641 13.2806C13.4888 13.2687 13.5157 13.262 13.5431 13.2608C13.5706 13.2596 13.5979 13.2641 13.6236 13.2738L16.5006 14.2062C16.6663 14.2596 16.8231 14.3376 16.9656 14.4377C17.0008 14.4625 17.0273 14.4979 17.041 14.5387C17.0548 14.5796 17.0552 14.6237 17.0422 14.6648C17.0291 14.7059 17.0033 14.7418 16.9685 14.7672C16.9337 14.7926 16.8917 14.8063 16.8486 14.8062V14.8056Z" fill="white"/>
<path d="M15.0859 18.8683H6.74268C6.68892 18.8683 6.63737 18.8469 6.59935 18.8089C6.56134 18.7709 6.53998 18.7194 6.53998 18.6656V15.9038C6.53927 15.526 6.65867 15.1579 6.88094 14.8524C7.1032 14.547 7.41682 14.3202 7.77647 14.2047L10.653 13.2723C10.6787 13.2626 10.7061 13.2581 10.7335 13.2593C10.7609 13.2605 10.7878 13.2672 10.8125 13.2791C10.8373 13.2909 10.8593 13.3077 10.8774 13.3284C10.8955 13.349 10.9092 13.3731 10.9176 13.3992C10.9261 13.4253 10.9292 13.4529 10.9267 13.4802C10.9242 13.5075 10.9162 13.5341 10.9032 13.5582C10.8901 13.5824 10.8723 13.6036 10.8508 13.6206C10.8293 13.6377 10.8046 13.6502 10.7781 13.6574L7.90154 14.5898C7.62336 14.6791 7.38079 14.8545 7.2089 15.0907C7.03701 15.3269 6.94472 15.6116 6.94539 15.9038V18.4629H15.0859C15.1397 18.4629 15.1912 18.4842 15.2293 18.5223C15.2673 18.5603 15.2886 18.6118 15.2886 18.6656C15.2886 18.7194 15.2673 18.7709 15.2293 18.8089C15.1912 18.8469 15.1397 18.8683 15.0859 18.8683Z" fill="white"/>
<path d="M13.3137 16.1415C13.2856 16.1415 13.2579 16.1357 13.2322 16.1243C13.2065 16.113 13.1835 16.0965 13.1645 16.0759L11.9546 14.7583C11.9357 14.7378 11.9213 14.7136 11.9122 14.6873C11.9031 14.6609 11.8996 14.633 11.9017 14.6052C11.9039 14.5775 11.9118 14.5504 11.9249 14.5259C11.938 14.5013 11.956 14.4796 11.9779 14.4623L13.4349 13.3069C13.4556 13.2893 13.4797 13.2759 13.5056 13.2678C13.5316 13.2596 13.559 13.2568 13.5861 13.2594C13.6132 13.262 13.6395 13.2701 13.6634 13.2831C13.6873 13.2962 13.7083 13.3139 13.7252 13.3352C13.7422 13.3565 13.7546 13.3811 13.7618 13.4073C13.7691 13.4336 13.771 13.461 13.7673 13.488C13.7637 13.515 13.7547 13.5409 13.7409 13.5644C13.727 13.5878 13.7086 13.6082 13.6866 13.6244L12.4005 14.645L13.2772 15.5989L14.3848 13.7056C14.4119 13.6592 14.4564 13.6255 14.5084 13.6119C14.5604 13.5982 14.6157 13.6058 14.6622 13.633C14.7086 13.6601 14.7423 13.7046 14.7559 13.7566C14.7696 13.8086 14.762 13.864 14.7348 13.9104L13.4886 16.0418C13.4726 16.0692 13.4504 16.0925 13.4237 16.1097C13.3971 16.127 13.3667 16.1377 13.3352 16.1411C13.328 16.1417 13.3208 16.1418 13.3137 16.1415Z" fill="white"/>
<path d="M10.8933 16.1417C10.8855 16.1417 10.8777 16.1412 10.8699 16.1403C10.8382 16.1366 10.8078 16.1256 10.7812 16.108C10.7546 16.0903 10.7325 16.0667 10.7167 16.0389L9.52076 13.9154C9.50682 13.8922 9.49767 13.8664 9.49386 13.8396C9.49006 13.8128 9.49167 13.7854 9.49859 13.7592C9.50552 13.7331 9.51763 13.7085 9.53421 13.6871C9.55078 13.6657 9.57148 13.6478 9.59509 13.6345C9.6187 13.6212 9.64473 13.6128 9.67165 13.6097C9.69857 13.6066 9.72583 13.609 9.75181 13.6166C9.7778 13.6243 9.80199 13.6371 9.82296 13.6542C9.84392 13.6714 9.86123 13.6926 9.87387 13.7166L10.9324 15.596L11.8095 14.6417L10.5851 13.6219C10.564 13.6051 10.5465 13.5842 10.5336 13.5606C10.5207 13.5369 10.5126 13.5109 10.5098 13.484C10.5071 13.4572 10.5097 13.4301 10.5176 13.4042C10.5255 13.3784 10.5384 13.3545 10.5557 13.3337C10.5729 13.313 10.5942 13.2959 10.6181 13.2835C10.642 13.271 10.6682 13.2635 10.6951 13.2613C10.722 13.2592 10.7491 13.2624 10.7747 13.2708C10.8003 13.2792 10.824 13.2927 10.8444 13.3103L12.2325 14.4658C12.2537 14.4833 12.271 14.5049 12.2836 14.5293C12.2961 14.5538 12.3035 14.5805 12.3054 14.6079C12.3073 14.6353 12.3036 14.6627 12.2946 14.6887C12.2855 14.7146 12.2713 14.7384 12.2528 14.7587L11.0429 16.0762C11.0238 16.0969 11.0007 16.1134 10.9749 16.1247C10.9492 16.136 10.9214 16.1418 10.8933 16.1417Z" fill="white"/>
<path d="M15.0608 18.8681H9.21546C9.1617 18.8681 9.11014 18.8467 9.07213 18.8087C9.03411 18.7707 9.01276 18.7191 9.01276 18.6654V17.3291C9.01276 17.2754 9.03411 17.2238 9.07213 17.1858C9.11014 17.1478 9.1617 17.1264 9.21546 17.1264C9.26922 17.1264 9.32078 17.1478 9.35879 17.1858C9.39681 17.2238 9.41816 17.2754 9.41816 17.3291V18.4626H15.0608C15.1146 18.4626 15.1661 18.484 15.2041 18.522C15.2421 18.56 15.2635 18.6116 15.2635 18.6654C15.2635 18.7191 15.2421 18.7707 15.2041 18.8087C15.1661 18.8467 15.1146 18.8681 15.0608 18.8681Z" fill="white"/>
<path d="M13.5596 13.6688C13.5058 13.6688 13.4543 13.6474 13.4162 13.6094C13.3782 13.5714 13.3569 13.5198 13.3569 13.4661V12.5551C13.3569 12.5014 13.3782 12.4498 13.4162 12.4118C13.4543 12.3738 13.5058 12.3524 13.5596 12.3524C13.6133 12.3524 13.6649 12.3738 13.7029 12.4118C13.7409 12.4498 13.7623 12.5014 13.7623 12.5551V13.4673C13.762 13.5208 13.7405 13.5721 13.7025 13.6098C13.6645 13.6476 13.6131 13.6688 13.5596 13.6688Z" fill="white"/>
<path d="M10.7154 13.6693C10.6617 13.6693 10.6101 13.648 10.5721 13.6099C10.5341 13.5719 10.5127 13.5204 10.5127 13.4666V12.4444C10.5127 12.3906 10.5341 12.3391 10.5721 12.3011C10.6101 12.263 10.6617 12.2417 10.7154 12.2417C10.7692 12.2417 10.8207 12.263 10.8588 12.3011C10.8968 12.3391 10.9181 12.3906 10.9181 12.4444V13.4666C10.9181 13.5204 10.8968 13.5719 10.8588 13.6099C10.8207 13.648 10.7692 13.6693 10.7154 13.6693Z" fill="white"/>
<path d="M16.8445 19.6294C16.3274 19.6294 15.8218 19.476 15.3918 19.1887C14.9618 18.9013 14.6266 18.493 14.4287 18.0152C14.2308 17.5374 14.179 17.0116 14.2799 16.5044C14.3808 15.9971 14.6299 15.5312 14.9956 15.1655C15.3612 14.7998 15.8272 14.5508 16.3344 14.4499C16.8416 14.349 17.3674 14.4008 17.8452 14.5987C18.323 14.7966 18.7314 15.1317 19.0187 15.5618C19.3061 15.9918 19.4594 16.4973 19.4594 17.0145C19.4584 17.7077 19.1826 18.3722 18.6924 18.8624C18.2022 19.3525 17.5377 19.6283 16.8445 19.6294ZM16.8445 14.8038C16.4076 14.8038 15.9804 14.9334 15.617 15.1762C15.2537 15.419 14.9705 15.764 14.8033 16.1678C14.636 16.5715 14.5923 17.0157 14.6775 17.4443C14.7628 17.8729 14.9732 18.2666 15.2822 18.5756C15.5912 18.8846 15.9849 19.095 16.4135 19.1803C16.8421 19.2655 17.2863 19.2218 17.6901 19.0545C18.0938 18.8873 18.4389 18.6041 18.6816 18.2408C18.9244 17.8774 19.054 17.4503 19.054 17.0133C19.0531 16.4276 18.8201 15.8661 18.4059 15.4519C17.9918 15.0377 17.4303 14.8047 16.8445 14.8038Z" fill="white"/>
<path d="M16.4573 17.8911C16.4036 17.8911 16.352 17.8698 16.314 17.8318L15.7399 17.2579C15.703 17.2197 15.6826 17.1685 15.6831 17.1153C15.6835 17.0622 15.7048 17.0113 15.7424 16.9737C15.78 16.9362 15.8308 16.9148 15.884 16.9144C15.9371 16.9139 15.9883 16.9344 16.0266 16.9713L16.4573 17.402L17.6622 16.1961C17.681 16.1773 17.7034 16.1624 17.728 16.1522C17.7526 16.142 17.7789 16.1368 17.8056 16.1368C17.8322 16.1368 17.8585 16.1421 17.8831 16.1523C17.9077 16.1625 17.9301 16.1774 17.9489 16.1962C17.9677 16.2151 17.9826 16.2374 17.9928 16.262C18.003 16.2866 18.0082 16.313 18.0082 16.3396C18.0082 16.3663 18.003 16.3926 17.9928 16.4172C17.9826 16.4418 17.9676 16.4641 17.9488 16.483L16.6002 17.8318C16.5623 17.8697 16.5109 17.891 16.4573 17.8911Z" fill="white"/>
</g>
<defs>
<filter id="filter0_d_2500_418" x="0" y="0.0351562" width="26" height="26" filterUnits="userSpaceOnUse" color-interpolation-filters="sRGB">
<feFlood flood-opacity="0" result="BackgroundImageFix"/>
<feColorMatrix in="SourceAlpha" type="matrix" values="0 0 0 0 0 0 0 0 0 0 0 0 0 0 0 0 0 0 127 0" result="hardAlpha"/>
<feOffset dy="0.5"/>
<feGaussianBlur stdDeviation="0.5"/>
<feColorMatrix type="matrix" values="0 0 0 0 0 0 0 0 0 0 0 0 0 0 0 0 0 0 0.25 0"/>
<feBlend mode="normal" in2="BackgroundImageFix" result="effect1_dropShadow_2500_418"/>
<feBlend mode="normal" in="SourceGraphic" in2="effect1_dropShadow_2500_418" result="shape"/>
</filter>
<clipPath id="clip0_2500_418">
<rect width="15" height="15" fill="white" transform="translate(5.5 5.03516)"/>
</clipPath>
</defs>
</svg>
