<svg width="24" height="24" viewBox="0 0 24 24" fill="none" xmlns="http://www.w3.org/2000/svg">
<path d="M19.995 6.6881C20.8914 6.15218 21.5622 5.30833 21.882 4.3141C21.0397 4.81392 20.118 5.16599 19.157 5.3551C18.5088 4.66944 17.6531 4.21601 16.7218 4.0647C15.7905 3.91338 14.8353 4.07258 14.0034 4.51775C13.1715 4.96292 12.5091 5.66936 12.1183 6.52816C11.7276 7.38695 11.6301 8.35044 11.841 9.2701C10.1349 9.18444 8.46584 8.74097 6.94222 7.96848C5.41859 7.19599 4.07444 6.11173 2.997 4.78609C2.44906 5.7312 2.2814 6.84943 2.52805 7.91367C2.7747 8.97792 3.41718 9.90838 4.325 10.5161C3.64371 10.4942 2.97753 10.3097 2.382 9.9781V10.0321C2.38219 11.0231 2.72513 11.9835 3.35266 12.7504C3.98019 13.5174 4.85368 14.0437 5.825 14.2401C5.19306 14.412 4.53021 14.4373 3.887 14.3141C4.16173 15.1664 4.69571 15.9117 5.41441 16.4459C6.13311 16.9802 7.00066 17.2767 7.896 17.2941C6.37583 18.4872 4.49848 19.1343 2.566 19.1311C2.223 19.1311 1.881 19.1111 1.541 19.0721C3.50341 20.3331 5.78738 21.0024 8.12 21.0001C9.7266 21.0111 11.3194 20.7028 12.8058 20.093C14.2923 19.4833 15.6427 18.5842 16.7787 17.4481C17.9147 16.312 18.8137 14.9615 19.4233 13.475C20.033 11.9885 20.3412 10.3957 20.33 8.78909C20.33 8.6031 20.326 8.4181 20.317 8.2341C21.1575 7.62671 21.8828 6.87426 22.459 6.0121C21.676 6.35914 20.8455 6.587 19.995 6.6881Z" fill="#FAFBFC"/>
</svg>
